<svg id="Layer_1" data-name="Layer 1" xmlns="http://www.w3.org/2000/svg" xmlns:xlink="http://www.w3.org/1999/xlink" viewBox="0 0 3336.14 1982.59"><defs><style>.cls-1{fill:#fefefe;}.cls-2{fill:#c0b7b7;}.cls-3{fill:#beb5b5;}.cls-4{fill:#bfb6b6;}.cls-5{fill:#8e3932;}.cls-6{fill:#8d3831;}.cls-7{fill:#8f3932;}.cls-8{fill:#913932;}.cls-9{fill:#893831;}.cls-10{fill:#282121;}.cls-11{fill:#928a8a;}.cls-12{fill:#2a2323;}.cls-13{fill:#262020;}.cls-14{fill:#973b32;}.cls-14,.cls-15,.cls-17{stroke:#f42121;stroke-width:0.75px;}.cls-14,.cls-15,.cls-16,.cls-17,.cls-18,.cls-20{stroke-miterlimit:10;}.cls-15{fill:#993b33;}.cls-16,.cls-17,.cls-18,.cls-20{fill:none;}.cls-16{stroke:#f33;}.cls-18{stroke:#f63;}.cls-19{fill:#fff;}.cls-20{stroke:#efa13a;}</style></defs><title>middle</title><path class="cls-1" d="M-1192.72-99c-.12,2.74-.33,5.47-.33,8.21q0,227.95,0,455.9c0,2.74.21,5.47.33,8.21-.12,3.08-.33,6.16-.33,9.25q0,531.63,0,1063.26c-.69-.34-1.95-.65-2-1-.17-2.74-.09-5.49-.09-8.24V-536.25q986.39,0,1972.78.13c3,0,7-2.38,9.28,1.94q-899.78,0-1799.56,0c-4.46,0-8.92.21-13.37.33h-22.69Q-1119.82-534-1191-534c-.54,0-1.09.68-1.76,1.13v101.84c-.11,2.39-.33,4.78-.33,7.17q0,158.86,0,317.71C-1193-103.78-1192.83-101.39-1192.72-99Z" transform="translate(1195.14 536.78)"/><path class="cls-2" d="M-153.08,674c19.39,12.51,41.29,10.67,62.83,11.2,10.25.25,20.64.38,30.71,2.11,27.43,4.71,44.95,28.3,42.2,55.64a43.56,43.56,0,0,1-37.85,38.81c-4,.52-7.93.9-13.54,1.53,7.5,6.38,14.23,11.15,19.8,17C-32.42,817.66-16.67,835.78,0,853a402.29,402.29,0,0,0,31.13,28.35c7.27,6.09,16.12,8,25.8,8.56,18.3,1.08,34.24-5.48,50.21-12.73a101.67,101.67,0,0,0,39.15-31c2.18-2.83,3.72-6.15,6.12-10.2,2.68,8.08,1,14.62-2.88,20.81-6.23,9.86-12.91,19.46-18.75,29.54-3.79,6.53-6.68,13.55-13,18.23-1,.73-2.07,1.31-4.6,2.89,1.9-7.85,8.9-13,4.66-20.78-6.6-2.17-12.17,1.6-18.07,4-10.16,4.09-20.44,7.91-30.58,12-12.32,5-24.4,2.79-36.11-1.56-33.72-12.51-57.73-36.48-75.76-66.71C-51.69,819.3-61.47,805-74,792.54c-8.22-8.23-17-13.63-29.75-10.11a83.86,83.86,0,0,0,1,32.06c2.34,10.39,7.7,13.86,18.63,13.62,2,0,3.92,0,7,0-3.29,4.52-7.4,4.37-11.18,4.62-19.82,1.34-39.59,2.43-59.5.67-13.93-1.23-28-.82-42-1.1-4-.08-8,0-12.26,0,.29-1.63.22-2.5.5-2.63,15.86-7.76,16.21-9,7.46-29.67-15,0-30.22-3.89-45.71-.55-7.94,1.71-16.13-1.36-24.38,1.83-11.93,4.6-17.24,11.31-17.16,26.22l20.86-3.05c-.07,1,.08,1.93-.19,2.06-13.71,6.74-28.08,11.7-43.48,10.19a65.13,65.13,0,0,1-22.5-6.75c-9.46-4.79-18.1-3.1-26.59.93-11.24,5.33-22.67,7.51-34.9,5a6,6,0,0,0-2-.33c-18.45,3.18-30.18-8.42-41.88-19.46-16.42-15.5-24.6-34.86-21.86-57.36a85.79,85.79,0,0,1,18.9-43.93c3.88-4.79,7.45-10.07,12.15-13.91,18.64-15.23,39.85-20.78,63.45-14.54,18.46,4.88,26.46,2,38.1-14.4,1-1.47,3.25-2.12,5.68-3.62.3,2.07,1,3.52.56,4.44-8.17,17.31-16.47,34.56-25,52.41-2.9.31-5.18-1.2-4.8-5.18,1.13-11.75-6.25-17.48-15.36-21.87-13.13-6.34-25.62-5.26-37.91,2.84-14.61,9.64-22.54,22.32-25.34,40.1-3.94,25.06,2.85,46.95,14.86,67.87,7.16,12.46,31.35,21.49,44.47,17.86,4.14-1.15,7.81-2.75,8.51-7.67,2.58-18,4.55-36,1.76-54.24-11.83-2.07-24.06-.49-34.45-7.92,22.2-.75,44.37-.89,65.28-16-1.2,8.44-1.67,14.33-2.91,20-4.37,20.09-3.18,39.56,6.13,58.13,1.21,2.42,3.73,5.91,5.6,5.89a11.91,11.91,0,0,0,8.39-4.38c4.57-6.37,8.28-13.37,12.23-20.17,9.65-16.6,19.37-33.17,28.82-49.89,6.25-11,11.95-22.4,18.16-33.46,2.35-4.19,1.52-7.9-.37-11.7s-4-7.62-6-11.31c18.58-12.8,33.3-27,31.88-53.37,4.41,9.44,5.3,15,4.3,22.49-.45,3.4-.91,6.81-1.55,10.18-1.48,7.88-1.88,15.65,1.58,23.18a5.25,5.25,0,0,1,.55,2c.47,18.46,9.45,33.3,20.11,47.45,13.91,18.47,24.17,39,33.33,60.09,4.42,10.19,10.3,18.47,22.67,19.88,5.1.58,8.21-.77,9-5.73a100.29,100.29,0,0,0,1.5-16.35c-.29-27.82-.82-55.63-1.33-83.44-.08-4.46-.46-8.92-.79-13.36-.73-9.63-2.9-18-13.35-22.32-4.42-1.84-7.58-6.72-11.32-10.22Zm47.58,101.48c14.06-.76,27.32-1.36,40.55-2.31a11.18,11.18,0,0,0,6.37-2.92c17.38-16.59,24.57-35,13-58.13-4.95-9.89-12.33-16.44-23.54-17.67-8.49-.94-17-1.63-25.56-1.85-10.09-.26-16.69,6.67-16.29,16.83.17,4.43,1.15,8.83,1.75,13.24.92,6.78,2.22,13.53,2.65,20.33C-105.88,753.52-105.82,764.09-105.49,775.47ZM-262,783.21a378.23,378.23,0,0,0,60.33-1.7c-12-20.06-18.69-41.14-33.5-59.3Z" transform="translate(1195.14 536.78)"/><path class="cls-2" d="M-702.31,833c-9.22.79-18.43,2.24-27.65,2.25-25,0-50.07-.69-75.11-.72-5.35,0-10.77,1.3-16,2.58-7.81,1.91-15.22,2.44-23.86-3.91,3.42-.28,4.94-.69,6.38-.48,14.37,2.11,25.48-4.28,34.83-14.06,2.53-2.65,3.9-7.27,4.14-11.09,1.49-23.63,3-47.27,3.47-70.93.23-11.53-1.74-23.11-2.83-36.07-9.53.73-18.65,1.29-27.74,2.2-4.42.44-8.76,1.6-13.15,2.3a18.27,18.27,0,0,0-12.66,7.78c-6.52,9-10.9,20-22.46,24.49-1.35.52-1.81,3-3.14,3.95a38.86,38.86,0,0,1-9.45,4.75c15.56-22.89,27.52-46.49,25.89-74.62,5,2.88,10.6,6.58,16.59,9.42,12.84,6.11,26.67,5.31,40.42,5.28,20.58,0,41.21-.48,61.71.83,13.12.83,22.56-3.37,30.55-14.69,4.46,10.44,1,20.89,3.3,30.52,2.23,9.42,5.4,18.61,8.3,28.4-3.9,1-6.85-1.59-9.28-4.16-6.57-7-13-14-19-21.47a14,14,0,0,0-11.37-5.67c-10.58-.33-21.15-1-32.95-1.54-.36,6.5-.81,11.84-.93,17.18-.51,23.31-1,46.62-1.33,69.93-.09,6.48.92,13,.49,19.45-.7,10.35,6.25,15.85,13.25,20.35,6.74,4.33,14.84,5.18,21.08-3.07,4.76-6.28,9.41-12.65,13.85-19.16,16.88-24.78,29.55-51.81,42.21-78.85,4.68-10,7.6-19.46-3.64-28.05,14.22-13.61,26-27.89,34.07-47.8,1,10.89,1.62,19.37-.63,27.84a56.59,56.59,0,0,1-3,8.78c-4.41,9.74-3,18.89.4,28.87,10.23,30.35,25,58.65,37.89,87.8,5.13,11.6,11,17.68,24,25.38,8.14-6.49,12.59-15.14,10.87-25.55a158.2,158.2,0,0,1-1.52-36.88c1-15.05.88-30.19,1.94-45.24,1-14.21-4.65-23.4-18.15-28-5.72-1.93-10-5.62-12.95-13.34,17.24,9.61,34.77,8.85,52.05,8.93,11.26.05,22.52-1.65,33.79-1.8a69.92,69.92,0,0,1,18.31,2.4c20.95,5.47,31.42,20.45,35.29,40.76a27.21,27.21,0,0,1-.51,11.23c-4.9,20-16.29,34.35-36.38,40.88-2.82.92-5.69,1.7-9.52,2.85,13.36,18.77,26.64,36,43.19,51.11a301.42,301.42,0,0,0,51.33,37.57c18.16,10.63,38,14.25,59.35,12.06,21.66-2.22,37.82-12.76,51.54-28.55.68-.78,2.35-.68,3.7-1-.06,17.86-27.28,58.51-45.17,66,2.26-4,3.77-6.69,5.33-9.37,1.38-2.37,3.35-4.56,4.1-7.1s1.62-6.42.38-8.45c-2.06-3.37-5.39-.73-8.22.35-17.83,6.8-36,11.58-55.25,7.52-15.95-3.36-30.3-10.44-43.82-19.48a184.27,184.27,0,0,1-43.85-41.51c-12.93-16.83-26.74-33-40.15-49.44a5.83,5.83,0,0,1-1.15-1.68c-3.11-9.49-10.16-9.68-18.77-7.94a63,63,0,0,0,.52,31.43c2.09,7.76,9.62,13.11,18.6,14.33,1.79.24,3.57.56,7.7,1.22A41.9,41.9,0,0,1-557.38,836c-20.46-.87-40.89-2.51-61.36-3.17-8.5-.27-17,1.46-25.58,1.77a53.28,53.28,0,0,1-17-2.21c9.25-4.27,20.61-3.66,26.09-13.58a7.26,7.26,0,0,0,0-2.32c-5.5-13-5.48-13.61-19.76-14.21-17.1-.71-34.24-.17-50.78-.17-13.32,18.37-12.55,23.33,3.52,27.26Zm141.73-61.43c13.08,0,26.39.11,39.69-.11,2.16,0,4.48-1.3,6.42-2.5,9.84-6,12-15.88,13.37-26.43,3.16-23.48-7.89-41.34-30.12-47.61-18.3-5.16-34.08,7.69-32.77,26.65C-562.88,737.57-561.8,753.61-560.58,771.53Zm-112.79-48.65c-8,12.9-25.43,57.42-26,66.76,8.25,0,16.47.21,24.67-.06,8-.27,16-1,24.11-1.59Z" transform="translate(1195.14 536.78)"/><path class="cls-2" d="M454.15,762.45c-3.67,3.54-7.49,7-11,10.66-9.8,10.33-10.87,23.39-10.67,36.57.32,20.9,1.11,41.78,1.77,62.67.31,9.88.25,19.82,1.32,29.63,1.18,10.8,3.48,21.47,5.38,32.7-5.76-1.26-11.6-4.59-16.8-8.78-8.28-6.67-16.2-13.78-24.26-20.72-1.82-1.57-3.7-3.08-5.41-4.76a822.4,822.4,0,0,1-62-68.64c-2.54-3.15-3.93-7.2-6.06-10.71-3-5-6.23-9.79-9.36-14.67l-2.13-2.67-1.11.54,1.38,3.83c.95,27.74,1.79,55.48,2.88,83.21.61,15.51,4.58,20.42,19.21,25.33,3,1,5.91,2.47,8.86,3.72l-.56,2.08c-5.24,0-10.64.8-15.71-.15a87.92,87.92,0,0,0-48.44,4.47c-3.88,1.48-8.21,4.2-12.74-1,2.05-1,3.61-2.15,5.35-2.66,9.15-2.69,16.7-8,23.26-14.63a12.74,12.74,0,0,0,3.14-8.07c.17-10.28-.21-20.58-.48-30.87-.52-19.87-1.11-39.74-1.65-59.61-.11-4.12,0-8.24-.23-12.35-.56-11.85-.69-11.55-12.37-15.27-6-1.92-11.65-5.11-17.46-7.73l.55-2.26c1.67,0,3.35-.09,5,0,14.34.91,28.67,2.13,43,2.61,4.62.16,7.52,1.47,10.33,5.08,15.57,20,31,40.13,47.24,59.58A293.33,293.33,0,0,0,421.79,885c0-8.88.14-15.88,0-22.86-.47-19.2-1.08-38.39-1.6-57.59-.43-15.64-3-19-18.14-24.4a60.67,60.67,0,0,1-14.52-7.37c22.61.67,44.73.82,64-13.06Z" transform="translate(1195.14 536.78)"/><path class="cls-3" d="M304.48,781.54,286,830.27c-24.4-5.91-48.78-3.19-72.93-3.82-23.94-.63-47.95,1-72.28,0,3.3-1.17,6.61-2.31,9.9-3.51a34.4,34.4,0,0,0,18.47-15.58,21.59,21.59,0,0,0,3.15-9.47q1.37-41.13,2.15-82.27c.3-16.09-3.11-20.49-18.43-24.71-4.17-1.15-4.27-.87-7.2-6.31,10.14,0,20.62-.08,31.1,0,13,.12,26,.74,39,.48a255.68,255.68,0,0,0,31.73-2.33c9.18-1.34,16.56-6.09,19.4-15.83.47-1.6,1.19-3.12,1.85-4.82,8.33,6.71,25.52,51.33,23.52,62.5-3.37-4.79-6.4-8.64-8.94-12.79-7.43-12.12-17.61-18.35-32.33-17.75-13.3.55-26.67-.42-40-.54-7.87-.07-10.66,2.38-14.07,9.46-5.23,10.86-4.33,21.92-2.39,33.22.76,4.46,3,6.81,7.47,6.8,7.54,0,15.17.58,22.59-.38,7.65-1,10.6-7.84,13.81-14a99,99,0,0,1,5.49-8.4l1.9.92-8.91,62.51-1.73.31c-.92-1.95-2.25-3.82-2.63-5.87s.38-4.07.5-6.12c.73-12.21-5.84-19.74-17.84-19.2-6.32.29-12.56,2.46-19.37,3.89.27,18.14-1.55,35.26,3.73,52C205,816,206,817,213.49,817.22c13,.35,26.09.51,39.13.72,5.68.09,10.41-1.76,15-5.43,12.29-9.77,24.9-19.11,34.12-32.18Z" transform="translate(1195.14 536.78)"/><path class="cls-4" d="M109.1,829.53c-11.17.27-22.38,0-33.49.93-13.59,1.15-27.13,3-40.6,5.19-3.91.62-7.06,1.19-10.59-2.49,3.75-1.51,7-2.33,9.75-4,13.29-8.18,21.6-18.37,20.05-35.86-1.6-18.08-6.53-33.56-18.39-47.76C24.46,731.88,15.52,716.3,2.11,704.16c-5.45-4.93-10.42-9.43-18-10.53-4.24-.61-8.27-2.63-12.4-4l.25-2.11,67-2c-.57,5.88-6.23,4.08-8.75,7.44-2.6,7.66,2.23,14.26,6.13,20.26,9.51,14.66,22.73,26.14,35.53,39.67,11.95-21,30.92-36.26,35.84-60.37l-16.37-4.23.09-2.14c2.05-.25,4.1-.64,6.16-.72,12.15-.43,24.3-.87,36.46-1.1,2.09,0,4.2.91,8.22,1.86-2.92,2-4.07,3.32-5.47,3.71C125.42,693,118,700.64,112.22,710.4q-14.39,24.36-28.85,48.67c-6.07,10.19-6.58,21.55-6.34,32.83.12,6,.24,13.59,3.72,17.4,5.79,6.34,14.19,10.35,21.68,15,2.1,1.31,4.85,1.58,7.31,2.32Z" transform="translate(1195.14 536.78)"/><path class="cls-5" d="M-539.24,622.95c-5.38-8.3-3.7-16.33-3.83-24-.35-20.58-2.93-19,19.11-19.37,1.71,0,3.42-.06,5.13,0,13.43.22,16.31,4,12.8,17.37,4.61,2.91,8.6,6.22,8.2,12.8-.47,7.82-4.66,13-12.53,13.2C-519.92,623.17-529.5,622.95-539.24,622.95Zm2.34-19.81c.83,5,1,8.07,1.95,10.86.57,1.65,2.39,4,3.75,4.06,6.75.33,13.62.6,20.26-.4,2.56-.38,5.78-3.78,6.63-6.46,1.41-4.45-2.69-6.37-6.18-8C-519.12,599.27-527.44,602.74-536.89,603.14Zm26.73-13.64c-8.86-6.22-18.15-3.36-27-3.44-.43,0-.87.88-1.72,1.82l3,8.06C-526.6,596.37-517.79,597.21-510.16,589.49Z" transform="translate(1195.14 536.78)"/><path class="cls-6" d="M21.5,595.82c7.9-1.56,14.15-2.48,22.43-.27-2.84,2.43-4,4-5.45,4.5s-3.39.1-5.1.14c-13,.24-13.43,1-8.27,14.12,10,2.36,21.25-2.13,31.83,3.17-5.64,5.92-17.56,7-41.12,4.36,0-12.34-.17-24.9.21-37.44,0-1.55,3-4.25,4.66-4.31,9.93-.39,19.89-.22,29.83,0,.82,0,1.61,1.74,2.71,3-9.65,8.79-20.36-.55-30.86,3.82Z" transform="translate(1195.14 536.78)"/><path class="cls-6" d="M-126,592.69l11.43,1.55c5.71.78,11.64.84,17.07,2.52,5.64,1.74,8.32,7.34,7.81,13-.47,5.3-4.56,11.46-9.43,12.17-10.16,1.48-20.45,2.21-30.32-1.79-1.3-.53-2.15-2.15-4.8-4.95,4.32,0,6.46-.12,8.58,0,7.1.46,14.18,1.23,21.29,1.45,4.69.15,7.81-2.52,8.55-7.21.86-5.42-2.8-7.28-7.24-8-4-.61-8.11-1.39-12.12-1.15-8.17.49-13.91-2.47-17.33-10.72,5.63-10.3,15.87-10.06,25.62-9.81,6.49.16,13.81.31,17.21,10.07-12.82-4.65-24.64-7.64-36-.55Z" transform="translate(1195.14 536.78)"/><path class="cls-5" d="M276.75,587.13c-2.19,0-4.38.13-6.56,0-5.74-.42-11.48-1.34-17.21-1.36-6.08,0-7.43,3.73-5.76,9.56,7,1,14.06,2,21.1,2.94,8.46,1.15,11.25,4.33,11.27,12.89,0,8.2-2.06,9.43-10.65,12.06-7.78,2.38-14.88-.27-22.21-.82-3.95-.3-8-2.85-5.15-9.43,6.75,7.22,15.33,6.15,23.65,5.77,4.23-.19,8.22-1.43,8.37-7s-3.71-6.92-8-7.37c-4.08-.43-8.25,0-12.35-.35-6.82-.51-14.46-6.35-14.65-10.95s6.94-12.26,13-12.92a80.72,80.72,0,0,1,18.5,0c2.7.33,5.07,3.28,7.59,5Z" transform="translate(1195.14 536.78)"/><path class="cls-7" d="M-611.78,596.35c.4,20,.4,20-2.71,24.09-3.71-5.09-4.63-24.5-1.59-36.52,8.6.24,12.49,7.49,17.85,12.3,5.57,5,10.68,10.49,16.07,15.84.58-8.55,1-16.43,1.7-24.28.33-3.8,1.82-6.68,6.13-5.57v37c-6.2,3.31-9.8.14-13.11-2.64-4.17-3.49-7.77-7.66-11.83-11.29-3.75-3.36-7.79-6.4-11.7-9.59l-1.84-2.45Z" transform="translate(1195.14 536.78)"/><path class="cls-6" d="M-314.68,621.27c-1.79-1.48-5.08-2.9-5.15-4.45-.47-11.44-2.59-23.09,2.43-36.07l32.87,26.8c4.35-8.5-4.85-17.77,2.55-27.75,7.13,13.7,3.47,26.11,4.64,39.35-15.17-4.65-21.76-18.34-35.17-25.36v26.27Z" transform="translate(1195.14 536.78)"/><path class="cls-7" d="M-353.42,622.64c-5.25-4-10.05-9-15.9-11.66-3.92-1.8-9.34-.34-14.53-.34l-1.51,9.45c-5.12,1.52-7-1.12-7.06-5-.22-10.58-.07-21.17-.07-32.85,7.38-.81,14.43-2.44,21.4-2.13,7.71.34,15.14,3.61,18.5,11.08,3.24,7.2-.73,13.16-6.13,18.14l7.18,11.63Zm-32.22-15.83c7.2-.66,13.94-.8,20.47-2,4.09-.78,7.3-3.69,7.36-8.62.05-4.48-2.93-6.73-6.44-8.35-8.33-3.86-16.31-2.58-24.5,1.74Z" transform="translate(1195.14 536.78)"/><path class="cls-5" d="M-426,621c-5.14-3.18-8.61-3.92-13.63-1.4-9.78,4.92-23.19-.08-27.7-8.63-.48-.9-1.28-1.83-1.29-2.75-.1-9.31-.06-18.62-.06-27.89,5.74-1,7.46,1.52,7.49,5.54a92.69,92.69,0,0,1-.58,11.26c-1,8.19,1.27,12.95,7.77,16,6.35,2.94,14.59,1.69,19.17-2.79,2.48-2.42,2.69-4.92,2-8.35a62.11,62.11,0,0,1-1.08-15.26c.14-3,1.91-5.85,3.76-8.49C-424.74,592-425.91,605.79-426,621Z" transform="translate(1195.14 536.78)"/><path class="cls-5" d="M-686.42,580.07c1.11,9.05,1.95,15.71,2.75,22.36,1.32,10.93,5.4,14.8,14.54,14.63,4.07-.08,6.6-1.75,7.79-5.3,1.72-5.14,3.12-10.39,4.51-15.62,1.07-4,1.92-8.07,3.91-11.9,5.42,12.63-.9,25.57,5,37.88l-3.57,1-5.18-5.76c-10.84,10.06-24.81,9.35-30.47-2.62-4.35-9.19-5-19.64-3.66-29.9C-690.72,583.85-689.21,583-686.42,580.07Z" transform="translate(1195.14 536.78)"/><path class="cls-5" d="M202.32,580.86l-15.43,15c5.22,9.28,15.09,13.36,18.84,23.75-2.69,0-5.12.74-6.06-.13-4.48-4.13-8.44-8.83-12.85-13.05-1.78-1.7-5.19-4.34-6.19-3.74-3.26,1.94-6.57,4.75-8.26,8-1.32,2.57-.26,6.37-.26,9.62l-2.84,1c-1.43-1.81-3.73-3.47-4.09-5.48-.71-4-.37-8.1-.4-12.17,0-4.33-.17-8.67.08-13,.21-3.53.93-7,1.42-10.56l2.73-.17,4,19.41C183.54,594.37,190.66,584,202.32,580.86Z" transform="translate(1195.14 536.78)"/><path class="cls-8" d="M136.24,622.28c-9.47,1.05-8.77-6-13.22-9.21-4.21-.68-9.56-1.46-14.88-2.43-4.39-.8-7.32,1.23-9.46,4.66-1.94,3.1-3.47,6.51-7.91,7.12.41-8.61,13.08-33.46,22.42-43.43Zm-15.51-16.76-8.87-17.17-9,17.17Z" transform="translate(1195.14 536.78)"/><path class="cls-9" d="M-36.14,619.69c-5.33,1.43-5.9-1.15-5.93-4.2-.06-6.17-.08-12.34-.1-18.51,0-3.35,0-6.7,0-10.66l-18.48-1.83c3-3,4-4.88,5.55-5.37,12.58-4.06,25,1,37.53,1.06.77,0,1.53,1.78,3.71,4.5l-22.28,1.82Z" transform="translate(1195.14 536.78)"/><path class="cls-7" d="M-201.88,587.22l-17.58,1.14v31.48l-2.19,1.07c-1.32-1.27-3.65-2.44-3.79-3.83-.52-5.08-.32-10.23-.36-15.35,0-3.66,0-7.32,0-10.32-6.91-4.19-14.89,1.53-21.13-6.29,2.7-1.26,4.88-3.24,6.9-3.08,12.69,1,25.92-2.85,38.17,2.38Z" transform="translate(1195.14 536.78)"/><path class="cls-10" d="M-1158,381.56l6.16,14.1c-2.12.46-4.45,1.77-5.9,1.12-4.12-1.86-7.89-4.53-12.35-7.22a19.87,19.87,0,0,1,12.09-8Z" transform="translate(1195.14 536.78)"/><path class="cls-11" d="M-153.08,674l-3.24.57-4.61-3.72,1.31-1.72Z" transform="translate(1195.14 536.78)"/><path class="cls-11" d="M-702.31,833V829.4l5.48.76.23,1.8Z" transform="translate(1195.14 536.78)"/><path class="cls-10" d="M-1192.72-431.06V-532.9c.68-.45,1.22-1.13,1.76-1.13q71.14,0,142.27.18l-1.45,6.67c14.09,2.71,15.71,2.15,20-6.67h4.13c.36,10.35,1.47,10-11.72,14.1-8.38,2.6-18.14,2.8-22.81,12.06-6.19.26-8.92-3.41-10.91-8.08s-4.84-8.24-11.44-7.67c.1,2.29.2,4.46.29,6.63-8.49,2.58-8.49,2.58-10.48,14.61l-24.86,4.59c-.21,2.12-.53,2.89-.3,3.43,5.32,12.55,4.88,13.28-8.37,13.62-1.68,0-3.36.19-6,.34.45,2.3.82,4.09,1.15,5.89.3,1.65.54,3.31.82,5.08l7.17,2.14-8.82,18c-7.52-5.53-15.26-8.2-24.82-3.16l-9.12,17.18-9.16-3.86-5.37,9.12Zm41-34.42c-.53.31-1.38.52-1.5.94s.38,1.15.61,1.74l2.07-1.34Z" transform="translate(1195.14 536.78)"/><path class="cls-12" d="M-954,141.52c-7,1.53-13.59-.06-16.07-4.89s-1.66-11.73-1.5-17.69c0-1.17,3.79-3.37,5.48-3.08,2.17.38,5,2.42,5.75,4.42C-957.86,126.8-956.24,133.62-954,141.52Z" transform="translate(1195.14 536.78)"/><path class="cls-13" d="M-1151.81-74.25c1.91,8.51-.33,11.89-7.13,10-2-.56-4.25-3.12-5-5.25-.79-2.34.06-5.22.23-8.65l11.85,3.88Z" transform="translate(1195.14 536.78)"/><path class="cls-12" d="M-387.72-315c4-2.87,5.78-9.4,13.35-8.16C-377.19-316.81-381.66-314.63-387.72-315Z" transform="translate(1195.14 536.78)"/><path class="cls-12" d="M-736.67-148.78l.56-9.11,9.14,1.28Z" transform="translate(1195.14 536.78)"/><path class="cls-12" d="M-986.83,290.86l-7.22-6.5C-987.83,284.41-987.83,284.41-986.83,290.86Z" transform="translate(1195.14 536.78)"/><path class="cls-12" d="M-958,148.14l7,2.83C-955.54,155.37-955.54,155.37-958,148.14Z" transform="translate(1195.14 536.78)"/><path class="cls-12" d="M-496.85-280.26c-2.4.49-3.73,1.2-4.46.8-1-.54-1.5-1.93-2.22-3,1-.65,2.26-2.05,2.78-1.81C-499.54-283.65-498.72-282.27-496.85-280.26Z" transform="translate(1195.14 536.78)"/><path class="cls-13" d="M-918.57-129.78l4-4,1.72,1.73-4,4Z" transform="translate(1195.14 536.78)"/><path class="cls-12" d="M-1117.88,350.68c-1.32-1.1-2.52-1.66-2.51-2.19a11.13,11.13,0,0,1,1.1-3.29c.73.46,2,.83,2.07,1.39C-1117.05,347.66-1117.54,348.84-1117.88,350.68Z" transform="translate(1195.14 536.78)"/><path class="cls-12" d="M-818.33-94.74l-1.34,1.18L-821-95.63c.59-.23,1.25-.75,1.74-.61S-818.64-95.27-818.33-94.74Z" transform="translate(1195.14 536.78)"/><path class="cls-13" d="M-1030.13-533.84c-4.29,8.82-5.92,9.37-20,6.67l1.45-6.67Z" transform="translate(1195.14 536.78)"/><path class="cls-12" d="M351.16,712.1l-1.38-3.83,1.11-.54L353,710.4Z" transform="translate(1195.14 536.78)"/><path class="cls-12" d="M-611.78,596.35l-1-3.14,1.84,2.45Z" transform="translate(1195.14 536.78)"/><path class="cls-13" d="M-1151.68-465.48l1.18,1.34-2.07,1.34c-.23-.59-.75-1.25-.61-1.74S-1152.21-465.17-1151.68-465.48Z" transform="translate(1195.14 536.78)"/><path class="cls-14" d="M931.79,427.77l-1.16-.26.25-.5.92.74Z" transform="translate(1195.14 536.78)"/><path class="cls-15" d="M1028.16,273.09l-.43-.39c.09,0,.23,0,.28,0a1.21,1.21,0,0,1,.15.35Z" transform="translate(1195.14 536.78)"/><path class="cls-16" d="M1010.87,280.34c.52.43,1.35.79,1.48,1.31a28.52,28.52,0,0,1,.5,4.25c.75,8.48,4,16.38,5.74,24.62,1.54,7.36,2.71,14.8,4,22.22a257.64,257.64,0,0,1,3.25,32.57c.1,2.2.48,4.39.66,6.59.76,9.17-2.18,17.74-4.44,26.4a89.4,89.4,0,0,1-13.88,29.53,6,6,0,0,0-.55,1.44l-.67.89a1.19,1.19,0,0,0-.33.15c-.05,0,0,.17,0,.26l.36-.43.91-.65c3.52-.63,5-3.87,7.46-5.89a76.31,76.31,0,0,0,9.35-9.33c3.87-4.56,7.52-9.31,11-14.19,3-4.22,2.53-8.83.58-13.41-1.28-3-1.17-3.1,2.18-2.89a6.48,6.48,0,0,0,6.66-4.77c.68-2.5,1.21-5,1.76-7.59a6.17,6.17,0,0,0-1.87-5.71c-1.14-1.22-2.3-2.43-3.66-3.87,4.42-2.48,5.67-6.06,4.37-10.62a5,5,0,0,1-.06-1.94c.79-6.52-2.18-10.88-8.62-12.63a4.29,4.29,0,0,1-.79-.44l4.2-7.3a6.13,6.13,0,0,0,.61-5.19c-1.43-4.85-2.56-9.79-3.58-14.74-.61-3-1.94-4.76-5.09-5.49-3.36-.78-5.91-3.15-8.11-5.74-.46-.54-.43-1.49-.62-2.25l.69-.41c.65.49,1.32,1,2,1.48,3.73,3,10,2.4,12.37-1.79,1.32-2.38,1.53-5.43,2-8.23.09-.61-.93-1.51-1.6-2.09-2.83-2.49-5.63-5-8.62-7.32a10.69,10.69,0,0,1-4.56-7.8h0c.32.21.79.34.95.64,2.3,4.4,6.83,5.87,10.71,8.14,2.59,1.51,7,.52,8.79-1.82a46,46,0,0,0,2.51-4l1.12.7c-1.45-1.56-3-3-4.34-4.69-2.14-2.6-4.12-5.33-6.22-8-1.3-1.62-2.62-3.24-4.08-4.73-2.38-2.44-3-5.48-3.77-9.25,1,.63,1.55.79,1.74,1.16,2.41,4.74,6.53,7.88,10.87,10.38a59.23,59.23,0,0,0,13,5.15c8.85,2.58,17.81,4.77,26.73,7.1,2.21.58,4.12,1.33,4.88,3.91a4.43,4.43,0,0,0,2.46,2.3c6.39,2.55,12.84,4.94,19.46,7.46a18.45,18.45,0,0,1,1-2.35c1.77-2.78,3.77-3.56,6.59-1.78a35.42,35.42,0,0,1,7.7,6.43c4.19,4.79,8.19,9.8,10.92,15.64.7,1.5,1.21,3.08,2,5.14-5.23-.81-9.39-3.66-14.22-3.63a31.83,31.83,0,0,0-15-.29,3,3,0,0,1-2.2-.38c-5.76-4.13-12.22-3.74-18.76-3.11a4.75,4.75,0,0,1-3.18-.8c-2.47-2-5.19-2.14-8.79-1.57,2.41.77,4.35,1.08,6,2a21.4,21.4,0,0,0,12.06,2.41,21.19,21.19,0,0,1,11.31,2.37c1.36.7,3.24.54,4.87.51,3-.05,6-.39,8.93-.38.6,0,1.2,1,1.8,1.52-4,1.93-7.91,4-11.94,5.73a4,4,0,0,1-3.25-.15A31.69,31.69,0,0,0,1089,305.2c-7.33-.16-14.65-1.24-22-1.93,0,.22,0,.39.09.43,2.82,1.69,4.32,3.16,6.82,6.88,3.63,5.4,7.22,10.83,10.82,16.25,4.73,7.11,7.86,15,10.83,22.9a112.29,112.29,0,0,1,7.2,31c.35,4.66,1.45,9.31,1.3,13.94-.33,10.26-.78,20.6-3.89,30.48-2.35,7.46-5.38,14.72-11.09,20.4a31.9,31.9,0,0,1-16.83,9.07l8.76-6.16c5.16-3.63,8.42-8.8,11.33-14.21.73-1.37,1.18-2.89,1.84-4.3a25.16,25.16,0,0,0,2.43-11.55c-.18-7.31-.26-14.59-1.71-21.77-.67-3.3-1.66-6.54-2.53-9.8-2.39-8.89-6.49-17-11.27-24.83-.12-.19-.42-.27-1.06-.66a26.69,26.69,0,0,0,0,5,35.91,35.91,0,0,1,0,13.18c-.56,3.32-.6,6.73-.93,10.09a45.75,45.75,0,0,1-.93,7.33c-2.22,8.3-4.48,16.62-9.05,24a27.31,27.31,0,0,1-15.65,12.4c1.43-3.58,2.59-6.8,4-9.92,2.31-5.21,3-10.78,3.55-16.31a153.73,153.73,0,0,0,.79-16.38c0-4.21-.64-8.42-1-13.23-.59.88-1,1.24-1.1,1.67-3.29,14.2-10.85,25.86-21.45,35.6-4,3.7-8.86,6.3-13.83,8.67-5.63,2.69-11.07,5.79-16.61,8.68-1,.54-2.17.93-3.53,1.5-.71-3.12.64-5.13,1.49-7.25,1.49-3.73,3.38-7.35,4.36-11.21a50.89,50.89,0,0,0-1.28-30.3c-3.28-9.21-7.21-18.13-11-27.12-1-2.49-2.11-5-3.35-7.88a8.9,8.9,0,0,0-1,1.4c-3.91,9.37-8,18.66-11.62,28.16a87.63,87.63,0,0,0-4.66,16.82c-.69,4.26.06,8.76.23,13.15.25,6.57,3.44,12.2,5.87,18.08a20.21,20.21,0,0,1,1.32,3.67,12,12,0,0,1-.3,3.14c-3.15-1.8-5.68-3.34-8.3-4.73-5.62-3-11.31-5.83-16.9-8.87-9.55-5.19-16.49-13-22-22.22-3.56-5.91-7-11.92-8-18.94a5.42,5.42,0,0,0-.76-1.45c-1.61,6.82-1.51,17.55-.73,27.75a75.22,75.22,0,0,0,7.67,27.38c-5.36-1.53-9.37-4-12.35-7.74a54,54,0,0,1-10.25-21.21c-1.22-5.05-2.78-10-3.2-15.23-.71-8.8-2.29-17.56-.58-26.42a8,8,0,0,0-.32-1.86c-1.51,2.28-2.78,4-3.88,5.87a105,105,0,0,0-13,54.37,17.24,17.24,0,0,0,1,4.94c3.73,9.88,8.52,19,18,24.75,1,.6,1.81,1.49,2.8,2.09a29.14,29.14,0,0,0,3.53,1.44c-5.42.37-8.83-2.23-12.29-4.41-6.16-3.88-10.06-9.76-13.08-16.19a71.59,71.59,0,0,1-6.34-27.17c-.17-3.37-.8-6.75-.68-10.11.42-12.09,1.45-24.11,4.93-35.81,3.87-13,8.71-25.64,16.39-37,2.92-4.32,5.76-8.68,8.65-13,.29-.43.81-.8.91-1.26.54-2.58,2.51-3.91,4.44-5.31l1.78-.38-.2-.55-1.75.74-11.6.86c-3.69.27-7.38.74-11.07.73-5.21,0-9.53,2.43-13.68,4.92-1.95,1.17-3.37,1.63-5.28.7-3.7-1.82-7.38-3.66-11.08-5.49.48-.52,1-1.49,1.44-1.5,3,0,6,.14,9,.22,1.53,0,3.4.62,4.52,0,4.9-2.93,10.21-2.68,15.56-2.78a20.89,20.89,0,0,0,6-1.26c2.64-.87,5.19-2,7.77-3.09-2.06-.16-4.33-.37-6,.51a16.4,16.4,0,0,1-8.67,1.63c-5.35-.24-10.62,0-15.38,3.09-1,.65-2.68.42-4,.31-4.42-.36-8.83-.85-13.14.67l-14,3.39c.55-4.53,2.88-8.1,5.35-11.55,2.2-3.07,4.75-5.88,6.91-9a19.88,19.88,0,0,1,7.06-6c4.27-2.33,6.26-1.5,8,3.61,2.41-.83,4.82-1.65,7.22-2.51,3.55-1.27,7.14-2.47,10.62-3.9,2.21-.91,4.39-1.77,5.32-4.64.39-1.2,2.85-2,4.52-2.49,9.87-2.83,19.82-5.35,29.65-8.29a39.14,39.14,0,0,0,12.94-6.16,26.65,26.65,0,0,0,7.55-8.21c.16-.28.54-.44,1.15-.91.8,3.66-.85,6.25-2.63,8.68-2.28,3.13-4.76,6.13-7.21,9.14-1.48,1.81-3,3.57-4.64,5.24a44,44,0,0,1-3.47,2.92c2.68,2.43,4.19,5.44,7.6,5.9a8.75,8.75,0,0,0,4.56-.24c3.74-1.73,7.76-3.17,10.24-6.86.11-.16.46-.16.7-.23.42,2.52-.05,3.37-2.37,5.26-3,2.46-5.92,5.09-8.94,7.57-1.94,1.59-2.4,3.17-1.63,5.77.9,3.05,1.49,5.93,4.55,7.65a7.7,7.7,0,0,0,9-.79c1.11-1,1.11-1,3.12-.83a14.6,14.6,0,0,1-9.05,7.77,6.67,6.67,0,0,0-5,5.62,109.39,109.39,0,0,1-3.07,12.06A11.33,11.33,0,0,0,950,332.14c.81,1.13,1.5,2.36,2.4,3.79-1.61.77-3,1.38-4.34,2.09a9.49,9.49,0,0,0-5.36,8.86c0,2,.14,3.94,0,5.88-.38,3.92.84,6.92,4.7,8.84a45.43,45.43,0,0,0-3.74,4,8.65,8.65,0,0,0-1.45,7.79c.39,1.38.78,2.75,1.13,4.13,1.19,4.65,2.78,6,7.48,6.3.51,0,1,.1,1.8.17a12.08,12.08,0,0,1,0,2.58c-.55,2.39-2,4.84-1.67,7.09a18.35,18.35,0,0,0,3.28,8.15,135.23,135.23,0,0,0,21.43,23.71c1.43,1.22,2.12,3.43,4.55,3.24l.5.45-.2-.75c-3-5.6-6-11.17-9-16.79-4-7.57-5.44-15.93-7.69-24.06-1.7-6.17-1.76-12.38-1.42-18.6.45-8.16,1.29-16.3,2.14-24.43.7-6.71,1.36-13.45,2.58-20.08,1.38-7.52,3.39-14.92,5.07-22.39,1.4-6.19,2.77-12.39,4-18.61a15.31,15.31,0,0,0-.26-3.77l1.24.57a33.57,33.57,0,0,1,.75,3.4c.32,2.7.32,5.45.85,8.1.62,3.16,1.27,6.38,3.58,8.92,4.79,5.26,7.9,11.5,10.58,18a23.46,23.46,0,0,0,1.48,2.53,14.84,14.84,0,0,0,1.21-2,68.62,68.62,0,0,1,10-17.93,24.31,24.31,0,0,0,4.28-9c.89-3.87.71-8,1-12Zm107.5,6.23a1.12,1.12,0,0,0-.15-.3s-.16,0-.25,0l.37.39c.49,2.53,2.54,3.68,4.49,5.58C1122.23,287.85,1121.78,287.33,1118.37,286.57Zm-37.18-6.13c-2.82-3-6.38-4-10.72-4.48C1073.44,279.72,1076.87,281.15,1081.19,280.44Zm-163.78-4.1c-4.12.1-7.29,1.33-9.81,4.13C911.44,280.88,915,280.55,917.4,276.35ZM865.87,292c4.17-3.42,4.19-3.44,4.86-5.83C867,287.39,866.72,287.71,865.87,292Z" transform="translate(1195.14 536.78)"/><path class="cls-16" d="M978,280.31c-.17-3.34-2.2-5.84-4.11-8.26a5.86,5.86,0,0,1-1.12-5c.72-5.19,2.09-10.36-.08-15.62a30.75,30.75,0,0,1-2.06-8.19c-.22-2,.39-4.06.76-6.07a26,26,0,0,1,1.11-3.74,9.3,9.3,0,0,0-.18-6,8.1,8.1,0,0,1-.17-4.87c2-5.21,4.33-10.29,6.59-15.4a16.33,16.33,0,0,1,1.88-2.45,25,25,0,0,1,.3,3.39c-.18,2.59-.46,5.17-.71,7.76s.69,4.32,3.33,5.71c2.42-2,5.12-4,6.19-7.43,1.64-5.21,3.53-10.36,3.19-16-.1-1.66,0-1.66,1.91-3.1.37,2,.68,3.87,1.06,5.73.87,4.18,1.4,8.49,2.79,12.49.85,2.46,2.83,4.63,4.67,6.6,1.68,1.8,3.93,1.32,4.5-1.1.6-2.57.34-5.36.33-8.06,0-1.51-.28-3-.51-5.34,1.32,1,2.29,1.4,2.59,2.07,2.07,4.62,4,9.28,6,14a7.7,7.7,0,0,1-.1,7.14c-.65,1.19-.41,3-.17,4.52.26,1.65,1.24,3.2,1.44,4.85a17.37,17.37,0,0,1,0,6.48c-2.12,7.73-3.6,15.45-1.38,23.39.55,2-.45,3.18-1.47,4.57-1.76,2.41-3.55,4.85-3.66,8l0,0c-.53.68-1.37,1.29-1.53,2a52.12,52.12,0,0,0-1.5,8.77c-.13,2.73-.56,5.07-2.56,7.1a43.59,43.59,0,0,0-10.09,16.92,8.37,8.37,0,0,1-1,1.65c-1.44-3.17-2.62-6.19-4.14-9a33.39,33.39,0,0,0-4.47-6.72c-2.89-3.18-4.92-6.33-4.72-11C981,286.73,980.77,283,978,280.31Zm28.94-25.92c-2.71.71-4,3.11-6.28,4.75,3.5,1,4.4.69,5.44-1.78a29.57,29.57,0,0,0,.9-2.91l.26-.58Zm-26.65-1.51a1.21,1.21,0,0,0-.12-.34c0-.06-.16-.05-.25-.08l.4.39c.91,1.81,1.72,3.68,2.77,5.4,1,1.57,2.35,2.12,4.47.93C985.08,256.78,983.55,253.88,980.28,252.88ZM1001.42,290c-3.15,2.5-5.69,7.88-5.36,11.51C998.42,297.82,1001.71,294.92,1001.42,290Zm-9,10.18c-.56-3.67-1.62-7.08-4.6-9.48C987.08,295,989.83,297.58,992.45,300.21Zm16.59-48.4c-.09,0-.23,0-.27.08a1,1,0,0,0-.08.35l.48-.1Z" transform="translate(1195.14 536.78)"/><path class="cls-17" d="M993.74,454.28c-.3-1.85-.67-3.7-.87-5.56-.45-4.13-.42-8.35-1.3-12.38-1.5-6.84-3.58-13.55-5.36-20.33a67.48,67.48,0,0,1-1.89-8.34c-.53-4.1.6-8,2.17-11.77,2-4.68,4-9.34,5.85-14.06.76-1.9,1.2-3.93,1.9-6.28.47,1.59.78,3.05,1.33,4.41,1.79,4.47,3.76,8.87,5.49,13.36a75.4,75.4,0,0,1,3.25,10,12.77,12.77,0,0,1-.25,5.77c-1.81,7.18-3.8,14.31-5.8,21.44-1.64,5.81-2.07,11.74-2.35,17.73-.09,2-.53,4-.81,6Z" transform="translate(1195.14 536.78)"/><path class="cls-17" d="M1026.2,454.83c3.44-1,6.39-1.68,9.26-2.65,5.77-1.95,11.69-3.62,17.19-6.18a62.05,62.05,0,0,0,19-13.49,45.93,45.93,0,0,0,10.24-18.21c1.18-3.8,1.31-7.91,2-11.86a41.3,41.3,0,0,1,1.44-4.68l.89.13c0,4.43-.36,8.91.09,13.29.64,6.19-.36,12.2-1.84,18-3.53,13.87-12.34,23.08-26.36,26.43a43.8,43.8,0,0,1-19,.56,12,12,0,0,0-4.23.28C1031.78,457,1030.28,456.83,1026.2,454.83Z" transform="translate(1195.14 536.78)"/><path class="cls-18" d="M903.65,398.4c.7,3.34,1.64,6.66,2.05,10,1.44,11.76,7.16,21.06,16.09,28.52a77,77,0,0,0,24.92,13.51c2.82,1,5.75,1.58,8.63,2.36l7.34,2a12.74,12.74,0,0,1-8.6,1.74,34.16,34.16,0,0,0-5.74,0c-9.76.77-19.45.31-28-4.84a35,35,0,0,1-16.74-24.42A109.46,109.46,0,0,1,902,410.67c-.12-4,.57-8,.9-12Z" transform="translate(1195.14 536.78)"/><path class="cls-18" d="M1107,436.45c1.2-2.72,2.15-4.75,3-6.82,3.91-9.61,7.32-19.4,9-29.66.54-3.38-.08-7-.46-10.48-.87-7.93-4.08-15.28-6.11-22.92-.84-3.15-1.3-6,.39-9.41.42.81.76,1.37,1,2,3.64,8.07,7.25,16.16,10.93,24.22,2.27,5,4.46,9.92,5.53,15.38,1.92,9.79-.27,18.4-6.81,25.79-4,4.58-8.16,9.23-14.26,11.29C1108.76,435.94,1108.3,436.06,1107,436.45Z" transform="translate(1195.14 536.78)"/><path class="cls-18" d="M876.38,357.57a16.5,16.5,0,0,1,0,7.94c-1.66,5.73-3.65,11.38-5.25,17.13a55.91,55.91,0,0,0-1.45,8.78,47.22,47.22,0,0,0,2.6,20.35c2.13,6.35,4.48,12.62,6.81,18.9.64,1.74,1.54,3.38,2.6,5.64a24.54,24.54,0,0,1-11.88-6.69c-5.11-5-9.88-10.37-11.32-17.81a33.64,33.64,0,0,1,1.73-19.89c2.48-5.86,5.5-11.48,8.12-17.28,1.93-4.26,3.61-8.63,5.4-13,.59-1.42,1.15-2.85,1.72-4.28Z" transform="translate(1195.14 536.78)"/><path class="cls-18" d="M1053,412.11c-1,4-1.76,7.51-2.83,10.95s-2.43,7.11-3.84,10.59-4.08,5.87-7.45,7.65c-4.7,2.48-9.49,4.2-14.9,3.76a18.9,18.9,0,0,0-3.07.38c-1.62.14-3.25.23-4.87.34l-.42-.82c3-3,5.69-6.28,9-8.9,4.43-3.56,9.39-6.47,13.9-9.94a64.82,64.82,0,0,0,7.31-7c2-2.07,3.66-4.37,5.54-6.51C1051.55,412.28,1052.19,412.31,1053,412.11Z" transform="translate(1195.14 536.78)"/><path class="cls-18" d="M936.37,412.88c1.87,1.53,4.14,2.77,5.53,4.66A45.3,45.3,0,0,0,954.53,429c6,3.76,11.54,8,16,13.56a26.62,26.62,0,0,0,2.67,2.52c-1.5,1.18-3.07.59-4.51.52-1.93-.1-3.85-.47-5.79-.58-9.8-.55-17.62-4.17-21.62-13.79a74.09,74.09,0,0,1-4.89-18.37Z" transform="translate(1195.14 536.78)"/><path class="cls-18" d="M1142.59,421.48c-.92,6.8-1.56,13.3-4.7,19.33a20.77,20.77,0,0,1-14.72,11.13c-4.78,1.06-9.77,1.14-14.67,1.68-1.28.14-2.56.36-3.84.54-1.52.21-3.1.67-4.27-1.12.77-1.8,2.51-2,4.05-2.64A113.29,113.29,0,0,0,1125,440.16c5.76-3.7,10.26-8.74,14.29-14.21Z" transform="translate(1195.14 536.78)"/><path class="cls-18" d="M888.3,453.82a23.57,23.57,0,0,1-4.31.42c-4.39-.35-8.76-.88-13.14-1.36-6.78-.75-13-2.64-17.58-8.18-3.47-4.24-5.17-9.29-6.27-14.56a39,39,0,0,1-.93-8.59c1,1.14,1.94,2.27,2.88,3.42,3,3.71,5.74,7.77,9.18,11.05a43.77,43.77,0,0,0,9.94,6.72c5.75,3,11.74,5.59,17.61,8.38.91.43,1.76,1,2.64,1.52Z" transform="translate(1195.14 536.78)"/><path class="cls-14" d="M87.79,369.77l-1.16-.26.25-.5.92.74Z" transform="translate(1195.14 536.78)"/><path class="cls-15" d="M184.16,215.09l-.43-.39c.09,0,.23,0,.28,0a1.21,1.21,0,0,1,.15.35Z" transform="translate(1195.14 536.78)"/><path class="cls-16" d="M166.87,222.34c.52.43,1.35.79,1.48,1.31a28.52,28.52,0,0,1,.5,4.25c.75,8.48,4,16.38,5.74,24.62,1.54,7.36,2.71,14.8,4,22.22a257.64,257.64,0,0,1,3.25,32.57c.1,2.2.48,4.39.66,6.59.76,9.17-2.18,17.74-4.44,26.4a89.4,89.4,0,0,1-13.88,29.53,6,6,0,0,0-.55,1.44l-.67.89a1.19,1.19,0,0,0-.33.15c-.05,0,0,.17,0,.26l.36-.43.91-.65c3.52-.63,5-3.87,7.46-5.89a76.31,76.31,0,0,0,9.35-9.33c3.87-4.56,7.52-9.31,11-14.19,3-4.22,2.53-8.83.58-13.41-1.28-3-1.17-3.1,2.18-2.89a6.48,6.48,0,0,0,6.66-4.77c.68-2.5,1.21-5,1.76-7.59A6.17,6.17,0,0,0,201,307.7c-1.14-1.22-2.3-2.43-3.66-3.87,4.42-2.48,5.67-6.06,4.37-10.62a5,5,0,0,1-.06-1.94c.79-6.52-2.18-10.88-8.62-12.63a4.29,4.29,0,0,1-.79-.44l4.2-7.3a6.13,6.13,0,0,0,.61-5.19c-1.43-4.85-2.56-9.79-3.58-14.74-.61-3-1.94-4.76-5.09-5.49-3.36-.78-5.91-3.15-8.11-5.74-.46-.54-.43-1.49-.62-2.25l.69-.41c.65.49,1.32,1,2,1.48,3.73,3,10,2.4,12.37-1.79,1.32-2.38,1.53-5.43,2-8.23.09-.61-.93-1.51-1.6-2.09-2.83-2.49-5.63-5-8.62-7.32a10.69,10.69,0,0,1-4.56-7.8h0c.32.21.79.34.95.64,2.3,4.4,6.83,5.87,10.71,8.14,2.59,1.51,7,.52,8.79-1.82a46,46,0,0,0,2.51-4l1.12.7c-1.45-1.56-3-3-4.34-4.69-2.14-2.6-4.12-5.33-6.22-8-1.3-1.62-2.62-3.24-4.08-4.73-2.38-2.44-3-5.48-3.77-9.25,1,.63,1.55.79,1.74,1.16,2.41,4.74,6.53,7.88,10.87,10.38a59.23,59.23,0,0,0,13,5.15c8.85,2.58,17.81,4.77,26.73,7.1,2.21.58,4.12,1.33,4.88,3.91a4.43,4.43,0,0,0,2.46,2.3c6.39,2.55,12.84,4.94,19.46,7.46a18.45,18.45,0,0,1,1-2.35c1.77-2.78,3.77-3.56,6.59-1.78a35.42,35.42,0,0,1,7.7,6.43c4.19,4.79,8.19,9.8,10.92,15.64.7,1.5,1.21,3.08,2,5.14-5.23-.81-9.39-3.66-14.22-3.63a31.83,31.83,0,0,0-15-.29,3,3,0,0,1-2.2-.38c-5.76-4.13-12.22-3.74-18.76-3.11a4.75,4.75,0,0,1-3.18-.8c-2.47-2-5.19-2.14-8.79-1.57,2.41.77,4.35,1.08,6,2a21.4,21.4,0,0,0,12.06,2.41A21.19,21.19,0,0,1,262,245.82c1.36.7,3.24.54,4.87.51,3-.05,6-.39,8.93-.38.6,0,1.2,1,1.8,1.52-4,1.93-7.91,4-11.94,5.73a4,4,0,0,1-3.25-.15A31.69,31.69,0,0,0,245,247.2c-7.33-.16-14.65-1.24-22-1.93,0,.22,0,.39.09.43,2.82,1.69,4.32,3.16,6.82,6.88,3.63,5.4,7.22,10.83,10.82,16.25,4.73,7.11,7.86,15,10.83,22.9a112.29,112.29,0,0,1,7.2,31c.35,4.66,1.45,9.31,1.3,13.94-.33,10.26-.78,20.6-3.89,30.48-2.35,7.46-5.38,14.72-11.09,20.4a31.9,31.9,0,0,1-16.83,9.07L237,390.5c5.16-3.63,8.42-8.8,11.33-14.21.73-1.37,1.18-2.89,1.84-4.3a25.16,25.16,0,0,0,2.43-11.55c-.18-7.31-.26-14.59-1.71-21.77-.67-3.3-1.66-6.54-2.53-9.8-2.39-8.89-6.49-17-11.27-24.83-.12-.19-.42-.27-1.06-.66a26.69,26.69,0,0,0,0,5,35.91,35.91,0,0,1,0,13.18c-.56,3.32-.6,6.73-.93,10.09a45.75,45.75,0,0,1-.93,7.33c-2.22,8.3-4.48,16.62-9.05,24a27.31,27.31,0,0,1-15.65,12.4c1.43-3.58,2.59-6.8,4-9.92,2.31-5.21,3-10.78,3.55-16.31a153.73,153.73,0,0,0,.79-16.38c0-4.21-.64-8.42-1-13.23-.59.88-1,1.24-1.1,1.67-3.29,14.2-10.85,25.86-21.45,35.6-4,3.7-8.86,6.3-13.83,8.67-5.63,2.69-11.07,5.79-16.61,8.68-1,.54-2.17.93-3.53,1.5-.71-3.12.64-5.13,1.49-7.25,1.49-3.73,3.38-7.35,4.36-11.21a50.89,50.89,0,0,0-1.28-30.3c-3.28-9.21-7.21-18.13-11-27.12-1-2.49-2.11-5-3.35-7.88a8.9,8.9,0,0,0-1,1.4c-3.91,9.37-8,18.66-11.62,28.16a87.63,87.63,0,0,0-4.66,16.82c-.69,4.26.06,8.76.23,13.15.25,6.57,3.44,12.2,5.87,18.08a20.21,20.21,0,0,1,1.32,3.67,12,12,0,0,1-.3,3.14c-3.15-1.8-5.68-3.34-8.3-4.73-5.62-3-11.31-5.83-16.9-8.87-9.55-5.19-16.49-13-22-22.22-3.56-5.91-7-11.92-8-18.94a5.42,5.42,0,0,0-.76-1.45c-1.61,6.82-1.51,17.55-.73,27.75a75.22,75.22,0,0,0,7.67,27.38c-5.36-1.53-9.37-4-12.35-7.74a54,54,0,0,1-10.25-21.21c-1.22-5.05-2.78-10-3.2-15.23-.71-8.8-2.29-17.56-.58-26.42a8,8,0,0,0-.32-1.86c-1.51,2.28-2.78,4-3.88,5.87a105,105,0,0,0-13,54.37,17.24,17.24,0,0,0,1,4.94c3.73,9.88,8.52,19,18,24.75,1,.6,1.81,1.49,2.8,2.09a29.14,29.14,0,0,0,3.53,1.44c-5.42.37-8.83-2.23-12.29-4.41-6.16-3.88-10.06-9.76-13.08-16.19a71.59,71.59,0,0,1-6.34-27.17c-.17-3.37-.8-6.75-.68-10.11.42-12.09,1.45-24.11,4.93-35.81,3.87-13,8.71-25.64,16.39-37,2.92-4.32,5.76-8.68,8.65-13,.29-.43.81-.8.91-1.26.54-2.58,2.51-3.91,4.44-5.31l1.78-.38-.2-.55-1.75.74-11.6.86c-3.69.27-7.38.74-11.07.73-5.21,0-9.53,2.43-13.68,4.92-1.95,1.17-3.37,1.63-5.28.7-3.7-1.82-7.38-3.66-11.08-5.49.48-.52,1-1.49,1.44-1.5,3,0,6,.14,9,.22,1.53,0,3.4.62,4.52,0,4.9-2.93,10.21-2.68,15.56-2.78a20.89,20.89,0,0,0,6-1.26c2.64-.87,5.19-2,7.77-3.09-2.06-.16-4.33-.37-6,.51a16.4,16.4,0,0,1-8.67,1.63c-5.35-.24-10.62,0-15.38,3.09-1,.65-2.68.42-4,.31-4.42-.36-8.83-.85-13.14.67l-14,3.39c.55-4.53,2.88-8.1,5.35-11.55,2.2-3.07,4.75-5.88,6.91-9a19.88,19.88,0,0,1,7.06-6c4.27-2.33,6.26-1.5,8,3.61,2.41-.83,4.82-1.65,7.22-2.51,3.55-1.27,7.14-2.47,10.62-3.9,2.21-.91,4.39-1.77,5.32-4.64.39-1.2,2.85-2,4.52-2.49,9.87-2.83,19.82-5.35,29.65-8.29a39.14,39.14,0,0,0,12.94-6.16,26.65,26.65,0,0,0,7.55-8.21c.16-.28.54-.44,1.15-.91.8,3.66-.85,6.25-2.63,8.68-2.28,3.13-4.76,6.13-7.21,9.14-1.48,1.81-3,3.57-4.64,5.24a44,44,0,0,1-3.47,2.92c2.68,2.43,4.19,5.44,7.6,5.9a8.75,8.75,0,0,0,4.56-.24c3.74-1.73,7.76-3.17,10.24-6.86.11-.16.46-.16.7-.23.42,2.52-.05,3.37-2.37,5.26-3,2.46-5.92,5.09-8.94,7.57-1.94,1.59-2.4,3.17-1.63,5.77.9,3.05,1.49,5.93,4.55,7.65a7.7,7.7,0,0,0,9-.79c1.11-1,1.11-1,3.12-.83a14.6,14.6,0,0,1-9.05,7.77,6.67,6.67,0,0,0-5,5.62,109.39,109.39,0,0,1-3.07,12.06A11.33,11.33,0,0,0,106,274.14c.81,1.13,1.5,2.36,2.4,3.79-1.61.77-3,1.38-4.34,2.09a9.49,9.49,0,0,0-5.36,8.86c0,2,.14,3.94,0,5.88-.38,3.92.84,6.92,4.7,8.84a45.43,45.43,0,0,0-3.74,4,8.65,8.65,0,0,0-1.45,7.79c.39,1.38.78,2.75,1.13,4.13,1.19,4.65,2.78,6,7.48,6.3.51,0,1,.1,1.8.17a12.08,12.08,0,0,1,0,2.58c-.55,2.39-2,4.84-1.67,7.09a18.35,18.35,0,0,0,3.28,8.15,135.23,135.23,0,0,0,21.43,23.71c1.43,1.22,2.12,3.43,4.55,3.24l.5.45-.2-.75c-3-5.6-6-11.17-9-16.79-4-7.57-5.44-15.93-7.69-24.06-1.7-6.17-1.76-12.38-1.42-18.6.45-8.16,1.29-16.3,2.14-24.43.7-6.71,1.36-13.45,2.58-20.08,1.38-7.52,3.39-14.92,5.07-22.39,1.4-6.19,2.77-12.39,4-18.61a15.31,15.31,0,0,0-.26-3.77l1.24.57a33.57,33.57,0,0,1,.75,3.4c.32,2.7.32,5.45.85,8.1.62,3.16,1.27,6.38,3.58,8.92,4.79,5.26,7.9,11.5,10.58,18a23.46,23.46,0,0,0,1.48,2.53,14.84,14.84,0,0,0,1.21-2,68.62,68.62,0,0,1,10-17.93,24.31,24.31,0,0,0,4.28-9c.89-3.87.71-8,1-12Zm107.5,6.23a1.12,1.12,0,0,0-.15-.3s-.16,0-.25,0l.37.39c.49,2.53,2.54,3.68,4.49,5.58C278.23,229.85,277.78,229.33,274.37,228.57Zm-37.18-6.13c-2.82-3-6.38-4-10.72-4.48C229.44,221.72,232.87,223.15,237.19,222.44ZM73.4,218.35c-4.12.1-7.29,1.33-9.81,4.13C67.44,222.88,71,222.55,73.4,218.35ZM21.87,234c4.17-3.42,4.19-3.44,4.86-5.83C23,229.39,22.72,229.71,21.87,234Z" transform="translate(1195.14 536.78)"/><path class="cls-16" d="M134,222.31c-.17-3.34-2.2-5.84-4.11-8.26a5.86,5.86,0,0,1-1.12-5c.72-5.19,2.09-10.36-.08-15.62a30.75,30.75,0,0,1-2.06-8.19c-.22-2,.39-4.06.76-6.07a26,26,0,0,1,1.11-3.74,9.3,9.3,0,0,0-.18-6,8.1,8.1,0,0,1-.17-4.87c2-5.21,4.33-10.29,6.59-15.4a16.33,16.33,0,0,1,1.88-2.45,25,25,0,0,1,.3,3.39c-.18,2.59-.46,5.17-.71,7.76s.69,4.32,3.33,5.71c2.42-2,5.12-4,6.19-7.43,1.64-5.21,3.53-10.36,3.19-16-.1-1.66,0-1.66,1.91-3.1.37,2,.68,3.87,1.06,5.73.87,4.18,1.4,8.49,2.79,12.49.85,2.46,2.83,4.63,4.67,6.6,1.68,1.8,3.93,1.32,4.5-1.1.6-2.57.34-5.36.33-8.06,0-1.51-.28-3-.51-5.34,1.32,1,2.29,1.4,2.59,2.07,2.07,4.62,4,9.28,6,14a7.7,7.7,0,0,1-.1,7.14c-.65,1.19-.41,3-.17,4.52.26,1.65,1.24,3.2,1.44,4.85a17.37,17.37,0,0,1,0,6.48c-2.12,7.73-3.6,15.45-1.38,23.39.55,2-.45,3.18-1.47,4.57-1.76,2.41-3.55,4.85-3.66,8l0,0c-.53.68-1.37,1.29-1.53,2a52.12,52.12,0,0,0-1.5,8.77c-.13,2.73-.56,5.07-2.56,7.1a43.59,43.59,0,0,0-10.09,16.92,8.37,8.37,0,0,1-1,1.65c-1.44-3.17-2.62-6.19-4.14-9a33.39,33.39,0,0,0-4.47-6.72c-2.89-3.18-4.92-6.33-4.72-11C137,228.73,136.77,225,134,222.31Zm28.94-25.92c-2.71.71-4,3.11-6.28,4.75,3.5,1,4.4.69,5.44-1.78a29.57,29.57,0,0,0,.9-2.91l.26-.58Zm-26.65-1.51a1.21,1.21,0,0,0-.12-.34c0-.06-.16-.05-.25-.08l.4.39c.91,1.81,1.72,3.68,2.77,5.4,1,1.57,2.35,2.12,4.47.93C141.08,198.78,139.55,195.88,136.28,194.88ZM157.42,232c-3.15,2.5-5.69,7.88-5.36,11.51C154.42,239.82,157.71,236.92,157.42,232Zm-9,10.18c-.56-3.67-1.62-7.08-4.6-9.48C143.08,237,145.83,239.58,148.45,242.21ZM165,193.81c-.09,0-.23,0-.27.08a1,1,0,0,0-.08.35l.48-.1Z" transform="translate(1195.14 536.78)"/><path class="cls-17" d="M149.74,396.28c-.3-1.85-.67-3.7-.87-5.56-.45-4.13-.42-8.35-1.3-12.38-1.5-6.84-3.58-13.55-5.36-20.33a67.48,67.48,0,0,1-1.89-8.34c-.53-4.1.6-8,2.17-11.77,2-4.68,4-9.34,5.85-14.06.76-1.9,1.2-3.93,1.9-6.28.47,1.59.78,3.05,1.33,4.41,1.79,4.47,3.76,8.87,5.49,13.36a75.4,75.4,0,0,1,3.25,10,12.77,12.77,0,0,1-.25,5.77c-1.81,7.18-3.8,14.31-5.8,21.44-1.64,5.81-2.07,11.74-2.35,17.73-.09,2-.53,4-.81,6Z" transform="translate(1195.14 536.78)"/><path class="cls-17" d="M182.2,396.83c3.44-1,6.39-1.68,9.26-2.65,5.77-1.95,11.69-3.62,17.19-6.18a62.05,62.05,0,0,0,19-13.49,45.93,45.93,0,0,0,10.24-18.21c1.18-3.8,1.31-7.91,2-11.86a41.3,41.3,0,0,1,1.44-4.68l.89.13c0,4.43-.36,8.91.09,13.29.64,6.19-.36,12.2-1.84,18-3.53,13.87-12.34,23.08-26.36,26.43a43.8,43.8,0,0,1-19,.56,12,12,0,0,0-4.23.28C187.78,399,186.28,398.83,182.2,396.83Z" transform="translate(1195.14 536.78)"/><path class="cls-18" d="M59.65,340.4c.7,3.34,1.64,6.66,2.05,10,1.44,11.76,7.16,21.06,16.09,28.52a77,77,0,0,0,24.92,13.51c2.82,1,5.75,1.58,8.63,2.36l7.34,2a12.74,12.74,0,0,1-8.6,1.74,34.16,34.16,0,0,0-5.74,0c-9.76.77-19.45.31-28-4.84A35,35,0,0,1,59.6,369.32,109.46,109.46,0,0,1,58,352.67c-.12-4,.57-8,.9-12Z" transform="translate(1195.14 536.78)"/><path class="cls-18" d="M263,378.45c1.2-2.72,2.15-4.75,3-6.82,3.91-9.61,7.32-19.4,9-29.66.54-3.38-.08-7-.46-10.48-.87-7.93-4.08-15.28-6.11-22.92-.84-3.15-1.3-6,.39-9.41.42.81.76,1.37,1,2,3.64,8.07,7.25,16.16,10.93,24.22,2.27,5,4.46,9.92,5.53,15.38,1.92,9.79-.27,18.4-6.81,25.79-4,4.58-8.16,9.23-14.26,11.29C264.76,377.94,264.3,378.06,263,378.45Z" transform="translate(1195.14 536.78)"/><path class="cls-18" d="M32.38,299.57a16.5,16.5,0,0,1,0,7.94c-1.66,5.73-3.65,11.38-5.25,17.13a55.91,55.91,0,0,0-1.45,8.78,47.22,47.22,0,0,0,2.6,20.35c2.13,6.35,4.48,12.62,6.81,18.9.64,1.74,1.54,3.38,2.6,5.64a24.54,24.54,0,0,1-11.88-6.69c-5.11-5-9.88-10.37-11.32-17.81a33.64,33.64,0,0,1,1.73-19.89c2.48-5.86,5.5-11.48,8.12-17.28,1.93-4.26,3.61-8.63,5.4-13,.59-1.42,1.15-2.85,1.72-4.28Z" transform="translate(1195.14 536.78)"/><path class="cls-18" d="M209,354.11c-1,4-1.76,7.51-2.83,10.95s-2.43,7.11-3.84,10.59-4.08,5.87-7.45,7.65c-4.7,2.48-9.49,4.2-14.9,3.76a18.9,18.9,0,0,0-3.07.38c-1.62.14-3.25.23-4.87.34l-.42-.82c3-3,5.69-6.28,9-8.9,4.43-3.56,9.39-6.47,13.9-9.94a64.82,64.82,0,0,0,7.31-7c2-2.07,3.66-4.37,5.54-6.51C207.55,354.28,208.19,354.31,209,354.11Z" transform="translate(1195.14 536.78)"/><path class="cls-18" d="M92.37,354.88c1.87,1.53,4.14,2.77,5.53,4.66A45.3,45.3,0,0,0,110.53,371c6,3.76,11.54,8,16,13.56a26.62,26.62,0,0,0,2.67,2.52c-1.5,1.18-3.07.59-4.51.52-1.93-.1-3.85-.47-5.79-.58-9.8-.55-17.62-4.17-21.62-13.79a74.09,74.09,0,0,1-4.89-18.37Z" transform="translate(1195.14 536.78)"/><path class="cls-18" d="M298.59,363.48c-.92,6.8-1.56,13.3-4.7,19.33a20.77,20.77,0,0,1-14.72,11.13c-4.78,1.06-9.77,1.14-14.67,1.68-1.28.14-2.56.36-3.84.54-1.52.21-3.1.67-4.27-1.12.77-1.8,2.51-2,4.05-2.64A113.29,113.29,0,0,0,281,382.16c5.76-3.7,10.26-8.74,14.29-14.21Z" transform="translate(1195.14 536.78)"/><path class="cls-18" d="M44.3,395.82a23.57,23.57,0,0,1-4.31.42c-4.39-.35-8.76-.88-13.14-1.36-6.78-.75-13-2.64-17.58-8.18C5.8,382.45,4.1,377.41,3,372.13a39,39,0,0,1-.93-8.59C3,364.69,4,365.82,5,367c3,3.71,5.74,7.77,9.18,11.05a43.77,43.77,0,0,0,9.94,6.72c5.75,3,11.74,5.59,17.61,8.38.91.43,1.76,1,2.64,1.52Z" transform="translate(1195.14 536.78)"/><path class="cls-16" d="M700.11,428.12H681c0-.09,0-.25,0-.25-1.24-.29-2.49-.59-3.74-.82-.86-.16-.73-.56-.42-1,4.69-.46,9.38.53,14-.62,1.17-.29,2.37.15,3.63-.47,1-.49,2.34-.29,3.56-.56a40.39,40.39,0,0,0,9.8-3.35,11.13,11.13,0,0,0,5.6-7.08c.81,0,1.63,0,2.45,0a9.09,9.09,0,0,0,2.24-.51c3.74-.7,5-1,7.55-2.81a14.14,14.14,0,0,0,3.78-3.71c1.34-2.15.74-4.52-.32-6.7a17.8,17.8,0,0,0-1.33-2c5.22-3.67,9.28-8.23,11.5-14.56L737,380.59h-2.25c1.31-1.83,1.38-3.85,1.77-5.7a28.08,28.08,0,0,0,.07-7.33,6.38,6.38,0,0,0-1.08-2.8,3.1,3.1,0,0,0-1.74-1.44c-1.53-.24-3.12-.15-4.24,1.41l2.79,1c-.45,1.86,1.75,3.82-.41,5.85l-3.16-3.27a22.53,22.53,0,0,0,.67,2.2c.49,1.08,1.37,1.9,1.83,3.06a11.84,11.84,0,0,1,.45,4.16c0,.09-.26.19-.5.35l-1.8-1.28c-1.15,1.42-1.39,2-.34,3s1,2.18,1,3.42c0,1.54,0,3.09,0,4.63a9,9,0,0,1-.7,2c-.63-1.11-1-1.86-1.47-2.57a3.86,3.86,0,0,0-.74-.68c-.18.91-.52,1.59,0,2.41a3.89,3.89,0,0,1,.69,2.66c-.6,2.36-1.51,4.63-2.3,6.94-1.4-.39-1.16-2.56-3.08-2.7,0,.43,0,.77,0,1.1a2.2,2.2,0,0,0,.18,1c1,1.41-.05,2.54-.67,3.51a44.27,44.27,0,0,1-3.55,4.36l-1.26-2.49c-.29.65-.54,1.1-.7,1.58a22,22,0,0,1-1.62,4,5.59,5.59,0,0,1-4.24,2.86l-.39-2.07a9.24,9.24,0,0,0-1.36,1.44c-.45.8-.55,1.95-1.18,2.47-1.71,1.39-3.62,2.53-5.54,3.82-.6-.93-.21-2.25-1.63-2.45-.62.51-1.76,1-1.94,1.68-.49,1.92-1.92,2.63-3.45,3.21a41.47,41.47,0,0,1-4.31,1.15v-2.84c-1.42.9-2.76,1.49-3.3,3.08a2.6,2.6,0,0,1-1.58,1.32,21.9,21.9,0,0,1-3.58.59c-1.16.15-2.32.23-3.85.39l1.92-2.35c-1-1.35-2.34-.51-3.06-.69-1.56,1-2.78,1.75-4.05,2.46-.35.2-1.07.34-1.23.16-.76-.85-1.69-.44-2.54-.48-1.24-.07-2.49,0-4,0l1.29-1.38c-1.17-.9-1.17-.89-2.06-.63a6,6,0,0,1-1.48.36,36.17,36.17,0,0,1-4.9,0,20.84,20.84,0,0,1-5.63-1.51l2.43-1.91a6.63,6.63,0,0,0-1.72-.87,26.23,26.23,0,0,0-2.72,0,4.77,4.77,0,0,1-1.81-.23c-1.6-.76-3.14-1.64-4.69-2.49-.1-.06-.14-.24-.21-.38l1.92-1.51c-3.84-1.55-7.62-2.51-10.8-5.14l2.29-.93c-.21-1.17-.92-1.34-1.81-1.31a7.73,7.73,0,0,1-4.56-1.53c-1.16-.75-1.86-1.81-3-2.58.57-.09.57-1.13,1.37-.45.19.17,1-.35,1.57-.59a39.54,39.54,0,0,1-4.21-2.55,45,45,0,0,1-3.72-3.65l3.25-.19c-1.3-1.75-3.39-1.76-4.49-3.2s-2.3-2.74-3.56-4.23l3.17-.21c-.9-1-1.56-1.84-2.26-2.59s-1.89-1.42-2.21-2.35-2-1.51-1.21-3l2-.53a3.26,3.26,0,0,1-1.64-3.2c0-.35-.33-.76-.57-1.11-.82-1.21-1.7-2.38-2.47-3.61a1.56,1.56,0,0,1-.12-1.25c.11-.27.64-.37,1.22-.65l-2.93-2.74a15.2,15.2,0,0,0,0-2,15.43,15.43,0,0,0-.64-2.16l1.59.67.72-.72c-1.48-1-1.8-2.69-2.12-4.18a40.72,40.72,0,0,1-.42-6.27L616,347.4c.14,3.06.13,5.93.45,8.76a31.17,31.17,0,0,0,1.57,8.14,10,10,0,0,1,1.12-2.61c.85-1,1.19-1.87.36-3a1.46,1.46,0,0,1,.08-1.25,9.78,9.78,0,0,1,4-4.12l.42,2.63a20.84,20.84,0,0,0,2.36-1.56,23.41,23.41,0,0,0,1.87-2,39.51,39.51,0,0,1,4.34.17l-1.8,2.67c1.07-.12,2.1.06,2.73-.36,1.54-1,2.79-1,4.17.24a6,6,0,0,0,1.84.78l-1.3,1.79c3.06.77,5.5,2.06,6.75,4.91l-3.42,1.4c.81,1,1.32,2.2,2.15,2.49A1.88,1.88,0,0,1,645,368.1a18.66,18.66,0,0,1,0,4.8l-2.73-2.17c-1.09,1.48,0,2.66.35,3.79a2.21,2.21,0,0,1-.15,2.11,14.73,14.73,0,0,1-2.58,3.58l-1.07-2.8c-1.39.3-1.65,1.55-2.32,2.41-.48.61-.78,1.43-1.38,1.85a19.71,19.71,0,0,1-3.36,1.74,3.68,3.68,0,0,1-1.33,0l.59-2.54c-1.37-.42-2.4.09-3.5.3s-2.24.07-3.1,1c0,.27-.11.62,0,.81,1,1.56,1.91,3.26,3,4.73a92.06,92.06,0,0,0,9.18,10.93c.39.38,1,.7,1.12,1.17.58,1.69,2.16,2.06,3.43,2.85.58.36,1.11.82,1.71,1.14,2.76,1.5,5.2,3.54,8.08,4.83q3,1.34,6,2.7c.31.14.6.44.9.44,1.52,0,2.76.81,4.11,1.29a10.85,10.85,0,0,0,2.62.87c1.71.14,3.45,0,5.17,0s3.32,1.23,5,0c.16-.12.61.22.94.27.49.07,1.17.28,1.44.05.67-.57,1.37-.28,2.05-.34s1.59.24,2.15-.06c2.29-1.21,4.82-1.13,7.25-1.6a10.65,10.65,0,0,0,2.71-.69c2.56-1.27,5.42-1.9,7.76-3.65,1.3-1,3.08-1.52,4-2.74a25.87,25.87,0,0,1,4.65-4.56,6.55,6.55,0,0,0,2.36-4.74,10,10,0,0,1,1.09-3.88,7.22,7.22,0,0,0,1-4.21,12.15,12.15,0,0,1,0-2.45,24.89,24.89,0,0,1,.53-2.5,9.55,9.55,0,0,0,.49-2.5,12.85,12.85,0,0,0-.9-2.82,26.43,26.43,0,0,0-2.87,2.92c-1.46,2.07-2.83,4.47-2.09,7,1.29,4.34-.25,8.57-3.4,11.86v-4.09a6.8,6.8,0,0,1-1.59.72c-1.82.24-3.66.39-5.49.57-.27,0-.61-.08-.79,0-1.39,1-3,.35-4.43.47A12.93,12.93,0,0,1,687,397a18.65,18.65,0,0,0-3.34-.46c-1.11-.13-2.21-.48-3.32-.51-2.61-.08-5.23,0-7.9,0-.23.83-.82,1.77-.56,2.25.66,1.22.3,2.74,1.33,3.83a1.09,1.09,0,0,1-.34,1.81c-1.71.77-2.62,2.39-4.14,3.57-.47,0-1.08-.09-1.69-.16-.05,0-.09-.13-.2-.31l1.31-2.56-1.92-1.5c.28-.28.49-.39.52-.54a6.61,6.61,0,0,0-2.65-7.19,11.4,11.4,0,0,0-8.42-1.88c-1.23,1.07-2.44.4-3.7-.07-.71.53-1.23,1.64-2.58.84,1.15-2.7,2-5.57,5-7.16-.5-.41-1-1-1.59-1.22s-1.09.33-1.67.47a4.72,4.72,0,0,1-1,0l3.27-3.27h3.76c.17-.57.6-1.26.48-1.83s-.9-1-1.72-.91a4.44,4.44,0,0,1-1.07-.15c.16-.4.19-.77.35-.84a14.22,14.22,0,0,1,1.46-.41c2-.65,5,.43,5.9,2.29a7.17,7.17,0,0,0,.62,1.66c2.47,3.36,5.28,6.23,9.33,7.67a15.27,15.27,0,0,0,5.48,1.25c.44,0,1-.12,1.3.11,1.16.91,2.45.18,3.65.43,1-1.2,2.51-.18,3.75-.83,1.46-.78,3.27-.84,4.66-1.89,2.85-.19,3.61-2.2,4-4.7-3.08-2.06-3.74-5.6-4.89-8.76-.66-1.84-.48-4-.62-6-.08-1.14,0-2.29,0-3.88a24.87,24.87,0,0,0-2.14,2.68c-1.73,3-3.46,6-5,9.09a8.18,8.18,0,0,1-4.91,3.87c-.74.27-1.63,1.29-2.86.11l3-3a3.55,3.55,0,0,0-.77-.78c-3.3-1.89-6.63-3.73-9.94-5.6-3.07-1.73-6.28-3.28-8.7-6-2.24-1-3.11-3.06-4.07-5.08-.2-.42-.73-.68-1.13-1-.57,1-1.15,1.66-1.06,2.71,0,.54-.35,1.11-.5,1.68-.39,1.5-1.88,1.64-2.91,2.28-1.46.91-1.82.76-3.09-.66,1.94-1.23,2-1.49,1.07-3.4a3.36,3.36,0,0,0-.62-.7c.36-.7.64-1.22.9-1.75a7,7,0,0,0-.5-7.54,16.47,16.47,0,0,0-2.4-2.54,21.41,21.41,0,0,0-7-4.11,1.45,1.45,0,0,1-.66-.57c-.31-.5-.54-1-.79-1.55a9.2,9.2,0,0,1-1.74,1c-.38.13-.89-.13-1.75-.29.73-.74,1.15-1.18,1.58-1.61a6.27,6.27,0,0,1,3.2-2.16c1.71-.34,2.07-2,2.91-3.36l-2.36-.4c.22-1.48,1.13-1.42,2.06-1.42,2.25,0,4.55.3,6.66-.82l-.71-.85c1.13.09,2,.11,2.83.25a2.19,2.19,0,0,1,1.11.57c1,1,2.74,5.46,2.79,7a14,14,0,0,0,.51,4.15c.8,2.39,1.23,5,2.53,7.12,1.88,3.15,3.82,6.23,6.81,8.63,3.27,2.62,7,4.1,10.8,5.55.65.25,1.66-.32,1.68-.94a16.19,16.19,0,0,0-.13-4.3c-.45-1.83-.6-3.71-1.11-5.6l-4.12-.8L665,351.82a4,4,0,0,1-.9-1.54c-.54-1.45-.92-3.12-2.73-3.74a3.16,3.16,0,0,1-2-2.62,6.11,6.11,0,0,0-2.19-3.75L655.91,339c.16-1.9.28-3.85-1.46-5.32-.19-.16-.11-.67-.12-1,0-.62,0-1.25,0-1.79-.28-.28-.44-.57-.67-.65-1.58-.5-2.68-1.36-2.63-3.19-.73-.16-.18-1.57-1.31-1.34l-4.54-3.82H643c-.49-.71-1.06-1.48-1.56-2.29a2,2,0,0,0-2.56-.91c-1.62.91-3,.46-4.45-.16a1.51,1.51,0,0,0-1-.06,2.73,2.73,0,0,0-2.47,1.68c-.21.55-.57.48-.86.71a5.06,5.06,0,0,1-2.58,1.09c-.42.06-.75.76-1.13,1.19l1.66,1-7.2,5.27,3,.21-2.24,4.36,2.3-.5c-.29.87.29,1.76-.4,2.74a1.58,1.58,0,0,0,.26,2.17,3.23,3.23,0,0,1,1.24,2.78c0,1.19.11,1.38-.8,1.4-1.71,0-3.41,0-5.32,0a5.72,5.72,0,0,1,.35-1.6c.69-1.18-1-.07-.9-1a20.8,20.8,0,0,0-.63-4.39h-.92c0,.8-.31,1.79.05,2.36,1.35,2.12,0,4.1-.2,6.09a4.26,4.26,0,0,1-1.7,2.76,12.82,12.82,0,0,1-4.48,1.82l-.74-3.23h3.48c3.22-3.16,3.11-7.88,1-9.78a5.23,5.23,0,0,1-.39,1.48c-.26.42-.44.67-.09,1.15.84,1.16-.85.14-.68.76,1.27,1.28-.46,2.33-.06,3.6-1.43,0-2.71.29-3.53-1-1.06.37-.54-1.23-1.4-1.12v-.55c.09,0,.26,0,.26,0,.51-2.14,1.57-4.07,2.08-6.25s.13-4.05.33-6.06c-.66-.5-.24-.9-.1-1.53a16.66,16.66,0,0,1,2.54-5.24,10.85,10.85,0,0,0,2.08-6c0-1.51.84-3.06,1.46-4.53a52.68,52.68,0,0,0,2.49-5.81c.53,1,1.38,1.94.36,3.21-.31.39-.1,1.24,0,1.87a3.77,3.77,0,0,1-.42,2.64c-1.4,1.4-1.38,3-1.11,4.74a6.83,6.83,0,0,0,3.71-3.64,7.12,7.12,0,0,1,4.23-3.54l.25,4a2.79,2.79,0,0,0,2.41-1.79,6.4,6.4,0,0,1,2.57-3c.77-.59,1.89-1.3,3-.43-.83.73-.52,1.58-.4,2.57a8.26,8.26,0,0,1,7-2.84l-.48,2.44c1-.42,1.78-.79,2.57-1.05a3.09,3.09,0,0,1,1.46-.2,21.34,21.34,0,0,1,2.45.75l-.5,2a17,17,0,0,1,4.16-.4,18,18,0,0,1,3.92,1.54c-.17.64.36,1.52-.81,1.46-.09,0-.32.42-.29.62s.31.37.51.43c1.3.39,2.62.69,3.9,1.13.44.15.77.61,1.24,1l-1.27,1.43c.45.83,1.29.61,1.86.91s1,.65,1.55,0a2.05,2.05,0,0,0,.14-2.22c-1.71-.24-1-1.77-.78-2.27a6.64,6.64,0,0,0,.42-3.36,5.65,5.65,0,0,1,.71-3c.75-1.42,1.43-3,.86-4.47a3.63,3.63,0,0,1,.32-3.31c.25-.52.51-1.35.27-1.74-1.15-1.9-.48-3.49.64-4.87-.74-.79-1.34-1.47-2-2.1-.15-.14-.48-.1-.71-.14-.09-3-.09-3-1.43-4.81-1.58.42-3-.26-4.34-1.06a8,8,0,0,0-1.52-.92,1.92,1.92,0,0,0-2.27.36c.62.77,2.09.68,1.82,2.05-2.25.2-4.13,1.32-6.28,2.72l3.21.31c-1.66,1.61-4.09,1.84-5.24,4.05l3.1.35c-.24.46-.3.78-.48.88-1.12.58-2.28,1.08-3.4,1.66-1.33.69-1.41,1-1.23,2.62a19.11,19.11,0,0,1,0,2.09,8,8,0,0,0-1.59.44,7,7,0,0,0-1.17,1l-3.8-4.42c.61-.11,1.73-.08.84-1.14-.41-.48.1-.54.22-.78.25-.52,1.31-.05,1.21-1.12,0-.38.63-.83,1-1.3-1-.2-1.69-.09-2.09.65-1.61,2.92-4.25,4.38-7.32,5.26-1,1.12-2.54,0-3.62,1.14.56-2.21.56-2.21-.54-4.59a14.72,14.72,0,0,0,2.18,1c1.42.4,2.86,1.45,4.35.23,1.22-1,2.56-1.9,3.22-3.45.18-.42.39-.83.68-1.43L633.64,296l-.09,1.09c-.89.23-1.56.38-2.21.57-1.17.34-3.34-.36-3.71-1.21-.26-.59.7-2.51,1.51-3.15,2.49-2,5.21-3.65,7.23-6.26V285.2a8.38,8.38,0,0,1,4.93-3.49,15.62,15.62,0,0,0,7-4.21,22.83,22.83,0,0,1,6.22-4,5.07,5.07,0,0,1,1.73,0L654.59,276h4.65v2c1.17.6,2.12-.33,3.07-.26a10.9,10.9,0,0,1,2.91,1.07L664,280.77c3.32.38,5.26,1.47,5,2.81l-1.51.23v1.32c1,.25,2,.48,3,.76.28.08.65.25.75.48.41,1,.74,2,1.13,3.18l-1.56.26a2.42,2.42,0,0,0,1,2.61,6.22,6.22,0,0,1,1.62,2.44c0,1,0,2,0,3.15l-1.66-.64c.18,2.39,1.6,4.51,1,6.92l-1.86.3,1.08.82c.31-.59,1.06-.33,1.52-1.05,1.71-2.68,2.44-3.17,4.55-4.31a4.55,4.55,0,0,0,1.11-.59,22.76,22.76,0,0,1,6.13-4.31,4.18,4.18,0,0,0,2.52-3.1,8.53,8.53,0,0,0,2.1-.64,43.3,43.3,0,0,0,5.28-3.67,4.27,4.27,0,0,0,1-5.51,4.5,4.5,0,0,1-.32-2.85c.18-2.5.14-2.74-2-3.89-.58-.31-1.12-.68-1.86-1.12.18.7-.65,1.4.66,1.74a1.23,1.23,0,0,1,.82,1.93c-1.12-.31-2.19-.55-3.23-.91s-1.87-1.48-3.24-.87c.82.52,1.56.95,2.25,1.45a4.51,4.51,0,0,1,.71,1,8.69,8.69,0,0,1-3.37-.36c-.76-.27-1.75-1.32-3-.19l4.56,2.07c-.21.19-.47.62-.74.63-1.4,0-2.8.38-4.21-.2-.85-.35-1.9-.25-2.73-.65-1.14-.54-1.75.43-2.62.61l-.12,1.51-2.36-.56-1.12,1.76c-.51-.78-1-1.4-1.34-2.07a19.78,19.78,0,0,1-.93-2.06c-.26-.65-.48-1.31-.71-2,1,1,1.59.26,2.43-.66-1,.35-1.47-.94-2.4,0a1.48,1.48,0,0,1-1.32,0c-2-1-4.46-1.38-5.75-3.62.52-.39,1.3-.68,1.53-1.2.45-1,.87-.69,1.3-.14a5.84,5.84,0,0,0,1.87,2,7.24,7.24,0,0,0,6.77.1l-1.46-1.36-1.49,1.4-.53-1.39-1.33.71-.76-2.79,2-2.3c3.08-.2,6.16.52,8.94-1.12.07,0,.18,0,.27,0a3.79,3.79,0,0,0,3.57-2.18h3.27a1.23,1.23,0,0,0,0,.26,36.46,36.46,0,0,0,4.57.79c2.35.13,4.72,0,7.08,0,1.93,0,3.88-.21,5.74.79v1.39c-2,0-4,0-6,0a1.53,1.53,0,0,0-1.62,1.06c.22,1,.94,1.09,1.81,1.16a7.12,7.12,0,0,1,4.87,2c.41.44,1.17.75.94,1.5a8.73,8.73,0,0,1-.88,1.63c1,1.31,2.12,2.57,3,4,.28.42,0,1.17,0,1.86h-1.64c0,.54-.15,1.06,0,1.41,1,1.87.39,3.86.48,5.78a2.17,2.17,0,0,1-.72,1.3c-.08.08-.66-.31-1-.5-.34.57-.94,1.11-.87,1.56.27,1.79-1.12,2.84-1.74,4.21a1.32,1.32,0,0,1-2.38.35,1.63,1.63,0,0,0-.19.13,10.46,10.46,0,0,1-3.61,5.18l-1.87-1.27c.18,2.8-2.08,3.34-3.35,4.92-.27-.4-.41-.58-.53-.77s-.2-.42-.37-.77c-2,1.11-1.82,4.14-4.55,4.57v-2.28c-2.69,1.83-3.35,4.68-4.58,7.17l-1.47-1.36c-1.85,1.83-1.67,4.39-3.14,6.47l-1.06-1.83c-.31,2.6,1.15,4.52.2,6.5-1.91-.18-1.91-.18-2.48.51a10.27,10.27,0,0,0,3.24,4.63c-.61,1.07-2.27.83-2.13,2.3a17.44,17.44,0,0,0,4.09.84c1,0,2,.7,3.29,1.17l-1.43.67a1.75,1.75,0,0,0,.5.26,11.86,11.86,0,0,0,5.07-.91,2,2,0,0,1,2.61.63L687,333a2.22,2.22,0,0,0,.47.24.91.91,0,0,0,.54,0c2-.94,4-1.91,5.08-4.13,1.4-2.83,2-5.6,1-8.69a13.24,13.24,0,0,0-3.06-5.3c-1.2-1.25-2.9-1.61-4.09-2.85l2-1.91a16.9,16.9,0,0,1,6.34-3.76,38.41,38.41,0,0,1,12.7-2.23c2.27,0,4.54,0,6.81,0a1.5,1.5,0,0,0,1.69-1.24L713,298.94c-.72.31-1.38.16-1.43-.32-.23-2-1.32-3.76-1.12-5.81,0-.12-.19-.26-.38-.51l-1,.58-.82-.76a40.48,40.48,0,0,1,2.83-5.36,4.35,4.35,0,0,0,1.08-2.83l4.57-2c-.43-.37-.6-.61-.84-.71a25.05,25.05,0,0,0-3.54-1.31c-.71-.17-1.28-.48-1.3-1.08,0-1.09-.57-1.44-1.49-1.84a21.09,21.09,0,0,1-3.12-2,6.52,6.52,0,0,1,4.67-1.06c1.78.1,3.49,0,4.84-1.19a61.84,61.84,0,0,1,7,4.67q2.45,2.06,4.77,4.25a1.28,1.28,0,0,0,1.67.29c1.53-1,2.66-.12,3.72.74a37.53,37.53,0,0,1,2.91,2.87,1.11,1.11,0,0,0,1.65.11c.25-.21.32-.63.64-1.3,1.6,2,3,3.69,4.32,5.4.58.74,1.11,1.53,1.64,2.32s.65.83,1.85-.06c.29-.22.83-.1,1.22-.13l2.82,6.07,1.37-.68c1.37,1.1,1.69,2.86,2.66,4s.86,3.23,2.39,4.18c.46-.6,1-.81,1.49-.07a12.79,12.79,0,0,1,1.46,3.75c.45,1.52.81,3.06,1.22,4.65h2.06c0,1.3-.05,2.48,0,3.66.05.85-.48,2,.56,2.44.47.22,1.2-.14,1.82-.22.06,0,.14.1.32.24,0,1.62-.05,3.33,0,5a7.2,7.2,0,0,0,.54,1.79l2.47-1.16a14.85,14.85,0,0,1,.75,2.61c.25,2.73.38,5.48.59,8.22,0,.25.34.47.52.71V354c-.09,0-.25,0-.26,0-.65-1.91-1.23-3.85-1.93-5.74-1.35-3.71-2.4-7.53-4.34-11-1-1.76-1.77-3.64-2.84-5.35-.52-.83-.6-1.31,0-2.1,1-1.3.91-1.66-.35-2.5-3.1-2-3.1-2-3.93-4.14.34-.25.67-.64,1.05-.72s.67.26,1.07.45c.17-1-.41-1.29-1.1-1.59a10.81,10.81,0,0,1-4.57-4.2l2.94-.31c-1.45-.85-2.45-1.5-3.51-2a5.86,5.86,0,0,1-2.94-3.1c-.05-.14.05-.33.09-.55l2.69-.45c-3-2-6-3-7.79-5.73l1.51-1.87a14.79,14.79,0,0,1-5.86-2.74l2.6-1.74a33.52,33.52,0,0,0-5.82-1.43l.6-2.76c-.9-.5-1.65-.9-2.37-1.32-.15-.09-.37-.28-.35-.38.09-.5.25-1,.39-1.47,0-.07.09-.18.08-.19a16.85,16.85,0,0,0-1.7-1.15,1.08,1.08,0,0,0-1.61.35,2.63,2.63,0,0,0,.48.57c1.35.85,1.36.84.84,2.33a19,19,0,0,1-1,2.58.87.87,0,0,0,.07,1.15c.65.84.16,1.5-.5,2s-1.28.88-1.88,1.36c-1.72,1.38-1.71,1.39-1.91,3.09-1,0-2,0-2.94,0s-1.93.05-3.07.08c2.49,2.49,2.47,2.56,4.18,3.07a22.08,22.08,0,0,1,6.13,2.3c1.92-.11,3,1.61,4.54,2.19,2.83,1,5.12,3,7.6,4.64a31.45,31.45,0,0,1,5,4.36c1.63,1.63,3.14,3.4,4.63,5.16a25,25,0,0,1,1.92,2.74,69.2,69.2,0,0,1,6.23,11.86c2,5.16,3.59,10.4,3.54,16,0,4.56.56,9.14-.48,13.68-.33,1.44-.19,3-.61,4.39A85.19,85.19,0,0,1,761.4,384a63.66,63.66,0,0,1-10.81,16.77c-1,1.11-2.38,1.84-3.38,2.94a27.32,27.32,0,0,1-5.56,4.39,13.33,13.33,0,0,1-3.78,2.08,12.76,12.76,0,0,1,1-1.42c2.9-2.94,6-5.69,8.42-9.07,1-1.34,2.07-2.56,3.05-3.87,1.3-1.73,2.41-3.55,3.58-5.35,2.71-4.16,4.38-8.58,4-13.62a2.47,2.47,0,0,0-.24-1c-.92-1.64-1.39-3.56-3.19-4.75.2-.69.39-1.35.59-2,1.27-4.23,2.61-8.44,2.3-12.95a5.93,5.93,0,0,1,0-1.63c.35-1.62-.63-2.84-1.25-4.12a3.18,3.18,0,0,0-1.83-1.39,6.17,6.17,0,0,0-4.92.15c-.44-1.63-.53-3.13-.84-4.53-.5-2.23-.86-4.5-1.47-6.72-1.08-4-2.33-7.74-5.64-10.49-1.07-.89-1.45-1-2.44,0-.59.56-1.15,1.16-1.74,1.73s-1.15,1.05-1.77,1.61c-.71-.71-1.34-1.24-1.85-1.87-1.25-1.56-2.4-3.2-3.68-4.73a18.64,18.64,0,0,0-6.91-5,3.26,3.26,0,0,0-2.28,2.94,22.19,22.19,0,0,0-.46,4c-.37.06-.58.16-.7.1a47.11,47.11,0,0,0-8.22-3.19c-1.3-.44-2.31.53-3.49.66a1,1,0,0,0-.63.77c.11,1-.37,2.07.42,3.1a24.66,24.66,0,0,1,1.89,3.57c-1.25,0-2.32,0-3.38,0a6.6,6.6,0,0,0-3.06.52,6.38,6.38,0,0,0-2.28,1.58c.86.27,2.06-.35,2.48.88l-2,1.38h11.5l-.63,3.92a12.76,12.76,0,0,0,2.55-.68,11.43,11.43,0,0,0,4.58-3.47c1.8-2.52,3-5.31,4.53-7.93.36,0,.8-.13,1.07,0,2.21,1.25,4.46,2.45,6.57,3.87,1.46,1,2.32,2.72,4,3.43,1.68,2.83,4.25,5,5.87,7.91a74.06,74.06,0,0,1,5,10.75c.79,2.22,1.84,4.45,1.7,6.93,1.36,2.42,1.41,5.2,1.52,7.78.17,4.17.56,8.39-.36,12.59-.4,1.83-.71,3.69-1.12,5.54A44.55,44.55,0,0,1,743.2,398a69.49,69.49,0,0,1-8.38,11,65.85,65.85,0,0,1-9,7.86,68.46,68.46,0,0,1-5.83,3.67,42.75,42.75,0,0,1-10.07,4.62c-2.37.65-4.55,2-7.12,1.9C702.13,428,700.69,427,700.11,428.12Zm-69.91-51.8a12.73,12.73,0,0,0,2.59-.38c1.72-.72,2.78-2.06,4.14-3.13,1-.75.4-1.78.83-2.67.82-1.71.12-3.7-.7-5.22-1.86-3.48-4.77-5.54-9-4.91a9.75,9.75,0,0,0-3.17.85,4.55,4.55,0,0,0-2.1,3.16,5.83,5.83,0,0,1-1.35,3,2,2,0,0,0-.37,1.19c-.06.81,0,1.63,0,2.44a3.47,3.47,0,0,0,1.76,3.3C625.07,375.08,627.25,376.59,630.2,376.32Zm90.47-78.84c1-.37,2-.79,3-1.12s1.5-1.18,2.13-2c1.49-2,.86-4.24.94-6.37,0-.54-.58-1-1.33-1a13.81,13.81,0,0,0-2.7,0c-1.64.41-3.46.57-4.47,2.25-.65,1.07-1.27,2.17-1.87,3.19C717.32,294.58,719.18,295.75,720.67,297.48Zm-82-10.86c1-.58,2-1,2-2.82C639.94,285,638.22,284.76,638.7,286.61Zm48.85-19.46-.07-.28h-2.86c.33.45.59,1,.74,1A18.21,18.21,0,0,0,687.56,267.15Zm-75.11,60,.49,0-.2-1.44-.29,0ZM676.79,273l-.3-.72a1.62,1.62,0,0,0-.34.47c0,.12.11.29.17.44Z" transform="translate(1195.14 536.78)"/><path class="cls-19" d="M337.16,195.83v-2.66l.52,0,.37,2.65Z" transform="translate(1195.14 536.78)"/><path class="cls-18" d="M1372.38,437.38a14.2,14.2,0,0,1-4.44-8.2c-.05-.43-.53-.82-.86-1.19-.61-.68-1.3-1.29-1.89-2a4.73,4.73,0,0,1-.63-5.18,20.46,20.46,0,0,0,1.41-4.77,4.9,4.9,0,0,0-2.22-5.19l-.11-.07.13,0c.21.7.43,1.41.63,2.11a10.92,10.92,0,0,1-.21,5.8,19.44,19.44,0,0,1-1,3.3c-1.42,3.15-.77,6.07.8,8.93a30.19,30.19,0,0,1,2.83,7.4,4.72,4.72,0,0,1,0,1l.05-.05a40.81,40.81,0,0,0-6-9.29,8.78,8.78,0,0,1-1.79-7.36c.62-3.39-.45-6.25-2.29-9a13,13,0,0,1-2-11.07,11.26,11.26,0,0,1,1.33-2.62,3.75,3.75,0,0,0-.44-4.64c-.18-.22-.34-.47-.52-.7a13.9,13.9,0,0,1-2.91-9.23,10.56,10.56,0,0,0-.6-4,25.33,25.33,0,0,0-.48,9.78,9.51,9.51,0,0,0,.86,2.25,24.67,24.67,0,0,0,1.31,2.44,8,8,0,0,1,1.1,6,11.9,11.9,0,0,0-3.48-7.3,6.5,6.5,0,0,1-1.86-5.24c.13-1.38.18-2.77.3-4.15a11.94,11.94,0,0,0-1.58-7.34c-1.27-2.13-2.56-4.27-4-6.3a15.47,15.47,0,0,0-2.76-2.82c-2-1.67-4.16-3.15-6.09-4.9a23.75,23.75,0,0,1-3.17-3.88,12.61,12.61,0,0,0-5.36-4.78,9.11,9.11,0,0,0-2-.49,9.73,9.73,0,0,1-1.89-.17,2.75,2.75,0,0,0-3.5,1c-.88,1.1-1.84,2.13-3,3.41,3.24-.66,4.28-.29,5.15,1.65v0c-.27-.17-.55-.33-.81-.52a2.6,2.6,0,0,0-2.74-.43c-.88.39-1.82.63-2.73.93l.08.39a6.62,6.62,0,0,0,1.45-.31,2,2,0,0,1,2.39.41c.48.41,1,.73,1.54,1.12a1.62,1.62,0,0,1,.53,2,4.91,4.91,0,0,0-4.25-2.22,5,5,0,0,0-3.75,1.38,4.53,4.53,0,0,1,4.29,2.79,2.3,2.3,0,0,1,.05,2.58,7.94,7.94,0,0,0-.46-1.1,5.3,5.3,0,0,0-3.25-2.68c-1.23-.29-2.44-.65-3.73-1-.2.38-.48.67-.49,1-.12,2.69-1.53,4.79-3,6.87a9.45,9.45,0,0,0-1.19,2.26c-.47,1.3-.82,2.65-1.22,4a15.43,15.43,0,0,1-3.43,6,14.29,14.29,0,0,0-1.91,2.67c-.85,1.53-.57,2.36.93,3.27a49.7,49.7,0,0,1-1.75,9.3c-.29,1-.65,2-1,3a11.46,11.46,0,0,0,.07,6.14c.71,3.16,1.4,6.34.9,9.61a11.1,11.1,0,0,1-.44,2.55,5.06,5.06,0,0,0,.31,4.3,23.84,23.84,0,0,1,1.92,9.09c.09,1.89.41,3.77.65,5.78l-1.67-1.32,0,0a38.79,38.79,0,0,1-6.84-7.64c-1.21-1.77-.92-3.78-.66-5.73a31.35,31.35,0,0,1,.85-4.07,2.7,2.7,0,0,0-.66-2.87,5.74,5.74,0,0,1-1.81-4.17,6.6,6.6,0,0,0-1-2.38c-.7-1.45-1.51-2.86-1.2-4.58a1.45,1.45,0,0,0-.26-.8,10.33,10.33,0,0,0-.8-1.34,10.2,10.2,0,0,1-1.32-10c0-.08-.06-.21-.13-.45-1,1.07-1,2.5-1.63,3.92a6.19,6.19,0,0,1,.6-5.15,36.89,36.89,0,0,1,3.79-5.38,4.19,4.19,0,0,0,1.1-4.64,11.32,11.32,0,0,1,.95-9.06c.36-.72.76-1.43,1.14-2.15.5-1,1.19-1.75.85-3.1a4.13,4.13,0,0,1,.87-2.9,2,2,0,0,0,.13-2.36,8.57,8.57,0,0,1-.76-2.11,6.34,6.34,0,0,1,.5-4.87c1-1.65,2-3.33,3-5l-3.74,2.61,0,0a3.77,3.77,0,0,1,.44-1c1.09-1.28,2.2-2.53,3.35-3.76a2.07,2.07,0,0,0,.68-1.7c-.42-4,1-7.5,2.86-10.88.17-.3.3-.62.51-1.07-1.59-1.67-2.74-3.56-1.32-6.15h-.51l-1.63,1.16a48.41,48.41,0,0,1-9,4.78,35.64,35.64,0,0,0-9.66,5.72c-2.91,2.56-4.65,5.87-6.17,9.33a3.54,3.54,0,0,0-.18,1.19,40.1,40.1,0,0,0,1.09,11.71,11.44,11.44,0,0,0,3.72,5.94c2,1.79,4.23,3.39,6.55,5.22-3-.41-5.1-2.09-7.27-3.6a10.35,10.35,0,0,1-4.42-6.6l-1,.16v-3.35l-1.44,1.2.44-4-1.78,1.32,1.68-4.29-1.42,1h0l1.05-3.27-1.6.55,1.32-2.57-.26-.21-1.41,1.29-.18-.09,2.24-3.7-1.94.62,3.24-3.47c-.36-.08-.6-.15-.85-.19s-.44,0-.88-.08l3.19-2.54H1269l0,0,3.86-2.66-1.53-.77,3.36-.95-1.78-.88,3.46-.91-1.11-.73c.06-.11.09-.27.15-.28,1.12-.18,2.25-.34,3.51-.52l-1.73-1.43h3.16l.22-.46-1.16-.82c.07-.1.13-.24.18-.24a18.15,18.15,0,0,0,3.74-.29l-1.79-1.44h3.73l-1.85-1.31,3.89-.33-1-1,4-.83v-.27l-1.22-.3c.09-.13.14-.29.25-.36,2.33-1.49,4.7-2.94,7-4.47a4.29,4.29,0,0,0,1.3-1.77c-3.73,1.77-7.73,2.38-11.6,3.38-1.51.39-3,.7-4.51,1.21-1.08.38-2.41.54-2.81,2,0,0-.08.08-.13.11-3.32,1.87-5.2,5-7.2,8.08,0,0-.11,0-.4.12a25.22,25.22,0,0,1,.77-3.57c1.16-3.14,2.42-6.24,3.71-9.33a3.06,3.06,0,0,1,1.23-1.36c2-1.16,4-2.23,6.08-3.31.79-.42,1.6-.79,2.71-1.33-.53,0-.71-.11-.85-.06a58.14,58.14,0,0,0-7.33,3.07,56.84,56.84,0,0,0-8.53,5.89,64,64,0,0,0-14.07,16.6c-.95,1.64-1.67,3.42-2.48,5.13a2.34,2.34,0,0,1-.7,1c.42-2.78.61-5.63,1.3-8.34,1.87-7.38,3.82-14.75,6-22a113.58,113.58,0,0,1,6.49-16.06c.59-1.24,1.32-2.42,2-3.63l1.07-1.71.67-1.07.63-1.1.68-1.07.4-.3.25-.73.44-.38,0,0-.44.38-.26.73-.42.29-.68,1.07-.79.95-.75,1-1.06,1.73a61.76,61.76,0,0,0-6.53,12,154.89,154.89,0,0,0-8.53,27.24c-1,4.45-1.81,8.93-2.76,13.69-.35-.71-.62-1.2-.83-1.71a21.37,21.37,0,0,0-7.21-8.75,8.7,8.7,0,0,0-9.63-.08l-.8.6a47.2,47.2,0,0,1,1.86-5.22c2.76-5.54,5.61-11,8.47-16.52,1-1.94,2.13-3.82,3.2-5.73l2.11-3.11,1-1.43,1.08-1.38,3.43-4.57,1.07-1.37,1.05-1.38.24-.46a.53.53,0,0,0,.13,0s0-.06,0-.09l-.12.17-.42.28-1.07,1.38-1.08,1.37-3.47,4.52-1.08,1.38-1,1.46-2.15,3.08c-2.06,3.27-4.24,6.47-6.14,9.83a114.7,114.7,0,0,0-8.21,18.15,1,1,0,0,1-.5.55c.39-2.8.79-5.59,1.16-8.39a61.9,61.9,0,0,0,.87-7.4c0-4.86-.8-9.56-3.62-13.69-1.46-2.14-3.14-4-5.79-4.71a1.45,1.45,0,0,1-.4-.26c4.4-4.32,9.46-7.79,14.5-11.28a133.49,133.49,0,0,1,15.73-9.17c5.44-2.76,11.32-4.45,16.86-7l-.13-.36a6.68,6.68,0,0,0-.91.22c-4.41,1.71-8.78,3.52-13.24,5.11a71.46,71.46,0,0,0-9.74,4.47,44.17,44.17,0,0,0-4.24,2.71c-4.38,3-8.78,6-13.08,9.17-2.15,1.57-4.12,3.38-6.12,5.15a1.61,1.61,0,0,1-2.12.38c1.11-1,2.2-1.94,3.22-3a29,29,0,0,0,2.66-3,8.4,8.4,0,0,0-1.09-11.34c-.94-.92-2.06-1.65-3.24-2.58,7.27-4.23,15.1-6.74,23.14-8.7a78,78,0,0,1,24.6-2.31l0-.46a28.47,28.47,0,0,0-4.46-.73,68.94,68.94,0,0,0-9.54.33,99.32,99.32,0,0,0-11.17,2.23c-7.7,1.92-15,5-22.42,7.76a1.67,1.67,0,0,1-.34,0c.7-.89,1.33-1.71,2-2.52,2.71-3.4,3.05-7.36,2.24-11.38a17.78,17.78,0,0,0-6.09-10.63,31.34,31.34,0,0,1-2.35-2.4c1.28.1,2.4.12,3.5.3,5.82.94,11.63,1.94,17.45,2.88,1.82.3,3.7.35,5.49.76q6.92,1.58,13.79,3.4c3.29.87,6.52,2,9.81,2.88,3,.81,5.26,2.78,7.53,4.75,1,.86,2.11,1.6,3.17,2.39l.33.16-.17-.33c-.66-.79-1.29-1.61-2-2.37s-1.68-1.75-2.37-2.46c.51-1.77,1.05-3.36,1.38-5a5,5,0,0,0-.24-2.34c-.37-1.21-.89-2.38-1.36-3.56a9.24,9.24,0,0,0-3.85-4.67c.45.08.89.19,1.34.25s.93,0,1.38.15c5.16,1.22,10.39,2.17,15.28,4.37a54.87,54.87,0,0,1,9.31,5.31,7.82,7.82,0,0,0,.74.42l2.15,1.69.34.36c.24.29.4.78,1.11.42l-1-.58-.36-.34-2-1.82a33,33,0,0,0-6.33-4.53,63.33,63.33,0,0,0-16.69-6.19,18,18,0,0,1-3.26-1.11c2.25.18,4.51.32,6.76.54,3.91.38,8.76-3.75,9-8.44.11-2.18.06-4.36.08-6.71l4.57,4.36a85.94,85.94,0,0,1,9.23,10.13,5.71,5.71,0,0,1,.69,1.56,62.59,62.59,0,0,1,3.49,15.15,32.24,32.24,0,0,0,.59,3.23c0,.08.17.14.33.26a34.2,34.2,0,0,0,1.32-7.28c.12-2.59.43-5.18.67-7.77,0-.15.16-.28.54-.4,0,2.33-.09,4.66,0,7a31.75,31.75,0,0,1-1.24,9.77,4.87,4.87,0,0,0,.2,3.84c.62,1.13.62,2.58,1.85,3.41.17.12.2.52.21.8a12.09,12.09,0,0,0,3.05,7l1.14,1.33.4.29.36.36.34.34.33.35.33.34.3.38,0,.07-.08-.08-.3-.33-.29-.39-.37-.3-.35-.34-.33-.39-.24-.46-1-1.39-1.68-3.6a10.79,10.79,0,0,1-.35-7.61,12.7,12.7,0,0,1,2.16-5.06,1.7,1.7,0,0,0,.26-1.11c-.17-2.13-.39-4.26-.59-6.39a4.7,4.7,0,0,0-.12-.86c-.82-2.81.5-4.89,2.54-6.48a20.49,20.49,0,0,0,3.9-4.6,10.9,10.9,0,0,1,2.23-2.35,5.67,5.67,0,0,0,2.07-2.48,5.12,5.12,0,0,1,2.08-2.47,7.31,7.31,0,0,0,1.69-1.69,9.33,9.33,0,0,1,3.86-3.13,58.4,58.4,0,0,1,11.46-4,22,22,0,0,1,3.79-.33c2.38,0,4.76,0,7.14.06a19.9,19.9,0,0,1,4,.45,33.16,33.16,0,0,1,13,6,9.61,9.61,0,0,1,1.69,1.69,11,11,0,0,0,3.07,2.73,41.78,41.78,0,0,1,5.06,3.64,5.17,5.17,0,0,1,1.47,2.47c.34,1.23.39,2.6-.79,3.52a9.17,9.17,0,0,0-2.46,3.29c-.26.51-.57,1-.85,1.5l-.37.66-.28.42-.78,1c-.56.49-1.1,1-1.69,1.47-.9.7-1.84,1.37-2.76,2l-1.4.69-1.42.68-4.13,2.48-.37.23s.1.11.11.1l.32-.26,4.28-2.3,1.36-.76,1.35-.73c1.2-.71,2.44-1.36,3.59-2.14a4.79,4.79,0,0,0,.95-1.34l.75-1,.29-.41.44-.63,2.73-3.23c3.12,4.67,4.62,9.56,3.53,15-.38,1.93-.76,3.85-1.19,5.77a6.14,6.14,0,0,0,.11,3.58,1.94,1.94,0,0,1-.8,2.54,6.17,6.17,0,0,0-1.33,1.36,1.49,1.49,0,0,0,.91,2.5,23.77,23.77,0,0,0,2.68.36c-1.17,1.21-2.72.61-4.26.94a10.65,10.65,0,0,0,2.74,4.4,17.4,17.4,0,0,0,4,2.71,2,2,0,0,1,.19,3.56c-1.38.71-2.76,1.43-4.16,2.11-.51.25-1.06.41-1.57.61.39,2.18.58,2.34,3.61,2.79a9.24,9.24,0,0,1-3.44,4.91l.28,3c-1.78.69-3.73.93-4.74,2.69a37.31,37.31,0,0,1,.58,3.71,4.36,4.36,0,0,1-4.46,4.83,9.35,9.35,0,0,1-2.57-.3,54.63,54.63,0,0,1-7-2c-3.49-1.42-4.83-.47-6.83,1.77-.31.34-.56.73-.91,1.19.5.63,1,1.26,1.48,1.88a10.35,10.35,0,0,1,2.49,6.35,3.39,3.39,0,0,0,1.74,2.93c2.47,1.71,4.94,3.46,7.23,5.4a21,21,0,0,1,6.57,11,13.88,13.88,0,0,1,.34,2.57c.24,3.34,2.3,5.15,5.21,6.25l.79.32c-2.39.05-3.25.06-5.8-2a3.85,3.85,0,0,0,1.11,3.44,31.34,31.34,0,0,0,4.94,4.83c3.33,2.43,4.87,5.75,5.7,9.59.18.85.43,1.68.62,2.52.59,2.65,2.87,3.39,5.09,2.79.32-.09.66-.12,1-.17l0,0a.66.66,0,0,1-.1.14c-2.21,1.93-2.21,1.92-5,1a12.72,12.72,0,0,0-1.58-.23c1,1.34,1.69,2.34,2.41,3.35,1.78,2.5,3.07,5.19,2.82,8.35a43,43,0,0,1-.8,4.42,10.66,10.66,0,0,0,.84,6.25,5.13,5.13,0,0,0,6.59,2.9l2.62-.83a1.29,1.29,0,0,1-.88,1.58c-1.56.74-3.16,1.41-4.72,2.15-1.06.5-1.84-.27-3-.66a12.77,12.77,0,0,1,1.11,2.29c.57,2.35,1.15,4.74-.31,7a4,4,0,0,0-.27.64c-1.27,3.07-.3,5.56,2.71,7,.68.31,1.36.61,2,.92l0,0a4,4,0,0,1-3.18.14,10,10,0,0,1-3.05-1.5,12.93,12.93,0,0,1-1.94-2.62c-.28,1.29-.64,2.5-.78,3.73a4.16,4.16,0,0,0,.39,1.95,5.11,5.11,0,0,0,1.09,1.71c.81.79,1.74,1.44,2.62,2.16l0-.06c-2.16-.22-3.51-1.6-4.61-3.28-1.33-2-1.71-4.39-2.37-6.66-.48-1.65-1.13-3.25-1.78-5.09a32.16,32.16,0,0,1-2.1,3.64,14.61,14.61,0,0,1-2.92,2.69c.4-1,.84-1.95,1.19-2.95a7.47,7.47,0,0,0-.55-6.2,37.43,37.43,0,0,0-3-4.84c0,.57,0,1.15,0,1.72a5.26,5.26,0,0,1-1,3.41c-.55.81-1.05,1.66-1.54,2.51a3.85,3.85,0,0,0-.13,3.19,18.31,18.31,0,0,0,1.08,2.72,21,21,0,0,0,1.45,2.34c.38.57.83,1.09,1.25,1.64l0,0a9.45,9.45,0,0,1-5-5.81c-1,3.47.19,5.69,2.11,7.15,1,.73,2,1.4,2.95,2.09a9.89,9.89,0,0,1-5.62-2.66c-1.63-1.65-1.88-3.87-2.56-6a4.91,4.91,0,0,0-.7,4.25c.75,2,1.65,3.91,2.48,5.87.15.35.23.72.35,1.08Zm19.54-25.14.09.06-.14,0-.19-.8-.38-.67a17.8,17.8,0,0,1-.65-3.19c-.08-3.24-.14-6.5,0-9.73A8.54,8.54,0,0,0,1389,392c-.09.1-.23.19-.22.26.09,2.54.12,5.09.3,7.63.21,2.93,1.22,5.75,1.21,8.74a7,7,0,0,0,.92,2.34l.39.68Zm-75.14-85.57-.37.66-.38.65c-.51.34-.61.72-.08,1.13l.33.38,1,1.38.7,1,.39.68,1.15,1.63.55,1.17.37.7.51,1.1.28-.15-.61-1.11-.39-.66-.74-1-.93-1.83-.4-.66-.66-1.09-1.08-1.36-.32-.37-.14-1,.37-.66.37-.67.29-.83c.86-.17.9-1,1.19-1.57l.75-1c.3-.35.6-.69.89-1.05,1.24-1.53,2.37-3.16,3.73-4.56a9.35,9.35,0,0,0,2.88-6.11,24.27,24.27,0,0,1,.46-3.61c.53-2.44,1.18-4.85,3.18-6.59a25.88,25.88,0,0,1,6-3.89,1.1,1.1,0,0,1,.28.05c.24.16.48.32.72.49a25.4,25.4,0,0,0,11,4.8,4,4,0,0,0,1.53.14,1.91,1.91,0,0,0,1.16-.88c.13-.29-.17-.85-.39-1.21a2.26,2.26,0,0,0-.78-.67,5.45,5.45,0,0,1-2.74-3.61c-.38-1.82-1.73-2.79-3.26-3.58-.47-.24-1-.44-1.63-.75.87-.27,1.54-.46,2.18-.69a2.85,2.85,0,0,1,2.91.23c1.17.81,3.09.13,3.88-1.12.34-.54.63-1.11.95-1.66a2.61,2.61,0,0,0-.38-3.34c-.94-1-2-2-2.88-3a5.66,5.66,0,0,0-3.44-1.85c-3.48-.54-7-1.09-10.46-1.51a4.91,4.91,0,0,1-3-1.2c-.85-.78-1.79-1.48-2.69-2.21l-.3.24c.23.48.34,1.15.72,1.41a14.15,14.15,0,0,0,6.94,2.91,68.75,68.75,0,0,1,7,1c3.39.61,5.55,2.95,7.37,5.63.71,1,.23,3.32-.78,3.51s-2.24.64-3.34.25c-3-1-5.38.31-7.87,1.6a15.1,15.1,0,0,0,3.63,1.11,3.53,3.53,0,0,1,2.81,2.45c.28.63.52,1.29.81,1.91a5.08,5.08,0,0,0,2.79,2.92,7.93,7.93,0,0,1,1.24.74c-.43.86-1.07.61-1.61.58a15.67,15.67,0,0,1-1.88-.28,11.05,11.05,0,0,1-5.2-2.18,24.29,24.29,0,0,0-4.29-2.59,2.7,2.7,0,0,0-2-.17,14,14,0,0,0-5.87,4.16,14.38,14.38,0,0,0-3.23,8.41,12.1,12.1,0,0,1-3.38,7.93,43.44,43.44,0,0,0-4,5.66l-.64,1.1-1.05,1.71ZM1301,339.19l.31.39c.49,1.29.9,2.62,1.49,3.87a2.7,2.7,0,0,1-.4,3c-1.66,2.33-1.62,2.36-.06,4.76.25.39.48.79.75,1.16a33.23,33.23,0,0,1,4.09,7.61c.41,1,.84,2,1.26,3l2.5-1c-2.9-4.49-5-9.28-8.4-13.17a18.94,18.94,0,0,0,1.55-1.91,2,2,0,0,0,.37-1.44c-.76-2.15-1.31-4.43-3-6.14l-.3-.4-.56-.66-.2.18Zm-7.45-45.11-.39-.32-4-3.79c-3.66-3.47-7.12-7.09-8.64-12.1,0-.12-.24-.19-.37-.28l-.11-.31.15.27c.34,1.32.4,2.81,1.09,3.91a31.53,31.53,0,0,0,5.64,7.16L1293,294l.41.29,1.34,1.3.3-.34Zm28.05-10.65c.56.1,1.13.18,1.69.3,1.61.36,3.21.74,5,1.15l-2.74-5-.25.08.9,3.78-5.68-1.48,1.65,4.69-3.4-1.66.78,4.13-4.74-1.29,2.23,5.48,1.53-.62-2.69-3.44c3.81,1,4.13,1.06,5.67.55l-1.39-2.93c1.61.09,3.06.63,4.69.13l-.83-1-2.4-2.92Zm46.08,144.29a29.49,29.49,0,0,1,1.16-4.72,27,27,0,0,0,1.69-7.58c.45-3.7-1-5.38-4-7,.39.57.66,1,1,1.38a6.74,6.74,0,0,1,.23,8.36c-.53.82-1.15,1.59-1.68,2.42a3,3,0,0,0-.56,1.24A7.73,7.73,0,0,0,1367.69,427.73Zm-50.32-87.38a19,19,0,0,0-4.24-3.79c.42,1,.74,1.67,1,2.36.56,1.76,1.34,2-1.13,3.44-.14.08-.23.25-.39.44a47.07,47.07,0,0,1,7.38,10.79,10.1,10.1,0,0,0,1.1-.2,11.4,11.4,0,0,0,1.13-.49l-7.47-9.46Zm52.74,15.37a23.71,23.71,0,0,0-3.79-6.26c-1.41-1.6-2.89-3.14-4.33-4.72-.87-1-1.72-1.95-2.62-3-.09.25-.19.37-.16.45a18.41,18.41,0,0,0,4.46,7.49C1365.73,351.63,1367.79,353.55,1370.11,355.72Zm-13.38-17.33a7.33,7.33,0,0,0-.9-5.66c-.68-1.18-1.21-2.45-1.77-3.69-.25-.54-.43-1.11-.73-1.9-.88,2.22-.94,2.28-.21,3.84C1354.27,333.46,1355.52,335.91,1356.72,338.38Zm-26.43-58.86c-.41.07-.76.25-1,.16-.65-.22-1.25-.57-1.88-.85s-1.45-.61-2.17-.92l-.13.33a19.85,19.85,0,0,0,6.12,3.15Zm8.37,6.11c-.94-1.38-1.51-1.46-3.26-.47A2.77,2.77,0,0,0,1338.67,285.63ZM1278,272.41h-.11v1.12h.11Zm.45-2.15h-.27l0,.74h.18Z" transform="translate(1195.14 536.78)"/><path d="M2129,560l4.06,1.14-.35.84-3.6-2.11Z" transform="translate(1195.14 536.78)"/><path d="M1765,329l-.64,1.57-.37-.22L1765,329Z" transform="translate(1195.14 536.78)"/><path d="M1920.19,340.74l.11.76h0l-.11-.88Z" transform="translate(1195.14 536.78)"/><path d="M2127,558.93l2,1.06.1-.12-2-1.1Z" transform="translate(1195.14 536.78)"/><path d="M2050.81,567.08l.57.29c-.08,0-.18,0-.23-.07a2.1,2.1,0,0,1-.2-.36Z" transform="translate(1195.14 536.78)"/><polygon points="3050.2 1100.65 3050.02 1100.92 3050.29 1100.74 3050.2 1100.65"/><path d="M2066.66,561.26h.47l-.36,0Z" transform="translate(1195.14 536.78)"/><path d="M2128.16,410.27q0-.23,0-.46l-.13.32Z" transform="translate(1195.14 536.78)"/><path d="M2084.87,545.18l.6.2c-.1,0-.24.08-.28,0a1.39,1.39,0,0,1-.21-.35Z" transform="translate(1195.14 536.78)"/><path d="M2084,544l.86,1.19.11-.11-1-1Z" transform="translate(1195.14 536.78)"/><path d="M2140.83,543l.17.24-.09-.29Z" transform="translate(1195.14 536.78)"/><path d="M1770,289.75l-.32.2.25-.1Z" transform="translate(1195.14 536.78)"/><path d="M1835.15,322.11l-1,.84.13.12,1-.83Z" transform="translate(1195.14 536.78)"/><path d="M1833.31,324.24l.93-1.16-.13-.12-.93,1.16Z" transform="translate(1195.14 536.78)"/><path d="M1833.18,324.11l.13.12Z" transform="translate(1195.14 536.78)"/><path class="cls-19" d="M1801.93,102.14l-.43-.77.31.89Z" transform="translate(1195.14 536.78)"/><path class="cls-19" d="M1777.21,141l-.13-.13Z" transform="translate(1195.14 536.78)"/><path class="cls-19" d="M2122.75,489.12l.4,0-.27-.17Z" transform="translate(1195.14 536.78)"/><path class="cls-19" d="M2042,485l-.37-.14.32.19Z" transform="translate(1195.14 536.78)"/><path class="cls-19" d="M1901,143l-1-1-.1.1,1.07.88Z" transform="translate(1195.14 536.78)"/><path class="cls-19" d="M1901.95,144l-1-1,0,0,.82,1.11Z" transform="translate(1195.14 536.78)"/><path class="cls-19" d="M1901.83,144.1l.87,1,.12,0-.87-1.09Z" transform="translate(1195.14 536.78)"/><path class="cls-19" d="M1902.7,145.05l.22.24-.1-.21Z" transform="translate(1195.14 536.78)"/><path class="cls-19" d="M1900,142l-1-1-.12.12,1,1Z" transform="translate(1195.14 536.78)"/><path class="cls-19" d="M1897.29,138.7l.7,1.31h0l-1.15-.84Z" transform="translate(1195.14 536.78)"/><path class="cls-19" d="M1793.26,93.73l.5.95-1-.47Z" transform="translate(1195.14 536.78)"/><path d="M1921,119l-.43-.39c.09,0,.24,0,.27.09a1.22,1.22,0,0,1,.06.39Z" transform="translate(1195.14 536.78)"/><image width="1600" height="900" transform="translate(1688.04 1302.78) scale(0.76 0.75)" xlink:href="../../../../../LEXAR/JS Abimation/animation 2/texture-background-1920x1080-wallpaper-wallpaper-2560x1440-www-wallpaperswa-com.jpg"/><path class="cls-19" d="M484.15,887.37c-.89-3.39,2.29-2.93,3.76-5.18C487.77,885.53,486.09,886.3,484.15,887.37Z" transform="translate(1195.14 536.78)"/><path id="_Path_" data-name="&lt;Path&gt;" class="cls-20" d="M610.79,1427.61a5.16,5.16,0,0,0-4.58,2.69.54.54,0,0,1-.48.28h-.08a.56.56,0,0,1-.46-.44c-.28-1.29-2.52-2.25-3.44-2.54H543.66a1.73,1.73,0,0,1-3.37,0H505.88a.41.41,0,0,1-.42-.41v-17.92h0v-22.58a11.24,11.24,0,0,1,.06-1.57,5.37,5.37,0,0,1,1.29-3.35,2.13,2.13,0,0,1,1.82-.51,2.59,2.59,0,0,1,2.26,1.56,2.49,2.49,0,0,1-.46,2.44,2,2,0,0,1-1.9.7,2.92,2.92,0,0,1-1.87-1.16l0,0c-.07.08-.15.22-.28.43a11,11,0,0,0-.05,1.48v1.82c.07.38,1.43,7.36,5.16,9.46a.41.41,0,0,1,.05.7c-2.3,1.71-4.77,3.88-5.16,4.75.69.44,2.41,1.72,2.14,3.45a2.13,2.13,0,0,1-.11.43,2.66,2.66,0,0,1-1.54,1.56c-.41.22-.54.3-.54.44v11.86c0,.22.75,5.65,5,5.65h7c-3.12-1.37-8.15-4.83-8.84-13a12.78,12.78,0,0,1,.84-6,12.45,12.45,0,0,1,3.71-4.95,18.54,18.54,0,0,1,7.73-3.58,1.35,1.35,0,0,1,1.24-1.32,1.28,1.28,0,0,1,1.15.92h.05l.05,0h0a23.76,23.76,0,0,1,8.76.67c4.5,1.24,8.84,3.52,13.43,5.94,6.09,3.21,12.38,6.53,19.22,7.27a33.15,33.15,0,0,0,8.91,0,11.84,11.84,0,0,0,1.88-.48c.69-.6,1.05-1.09,1.07-1.43s-.18-.5-.49-.85a2.28,2.28,0,0,1-.58-2.88,2.15,2.15,0,0,1,2.54-1,2.23,2.23,0,0,1,1.72,2.44,4.61,4.61,0,0,1-1.74,3.28,7.24,7.24,0,0,1-2.1,1.15l-.09,0a12.2,12.2,0,0,1-2.08.53,33.3,33.3,0,0,1-9.12,0c-7-.75-13.38-4.11-19.53-7.36-4.55-2.39-8.84-4.66-13.26-5.87a20.91,20.91,0,0,0-3.18-.61c6.53,1.53,14,8.12,20.63,14,7.45,6.59,20.36,7.11,20.49,7.11h19a8.71,8.71,0,0,0,1.09-.18,4.25,4.25,0,0,0,.69-.7,1.77,1.77,0,0,0-.32-.25,3.37,3.37,0,0,1-1.64-2.23,2.49,2.49,0,0,1,.89-2.44,2.67,2.67,0,0,1,2.62-.61,2.76,2.76,0,0,1,1.64,2.49,3.61,3.61,0,0,1-.75,2.92,6.43,6.43,0,0,1-4.19,1.82H547.29a.41.41,0,0,1-.41-.36.42.42,0,0,1,.33-.46,2,2,0,0,0,1.15-.81,2.8,2.8,0,0,0,.16-2.2c-.36-1.4-1.89-1.82-3.08-1.76s-2.63.69-2.78,1.76a2.82,2.82,0,0,0,1.27,3,.41.41,0,0,1-.19.78h-9.32a.42.42,0,0,1-.4-.28.4.4,0,0,1,.16-.46,11.59,11.59,0,0,0,4.16-11.34c-1-5.61-8.24-9.69-14.1-9.87h0a1.34,1.34,0,0,1-1.23,1.24,1.25,1.25,0,0,1-1.12-.85,17.5,17.5,0,0,0-7.31,3.4,11.43,11.43,0,0,0-4.25,10.21c.94,11,9.9,12.94,10.59,13.07h1.86a20.33,20.33,0,0,1-6.19-4.28,10.66,10.66,0,0,1-3.17-8.2,9.62,9.62,0,0,1,6.36-8.81c3.45-1.28,7.25-.65,9.45,1.55s3.39,4.92,3.1,7.36a7.4,7.4,0,0,1-3.81,5.4c-2.59,1.6-6.25.13-8.15-2.15-1.46-1.76-1.63-3.65-.45-5.1a.15.15,0,0,1,.05-.06l.14-.16c1.68-1.81,3.18-1.84,4.13-1.55a3.35,3.35,0,0,1,2.25,2.33,2.56,2.56,0,0,1-.89,2.25,2.5,2.5,0,0,1-2.47.35,3.31,3.31,0,0,1-1.83-2.06c-.11-.25-.31-.7-.42-.73s-.12,0-.31.16c-1.29,1.6-.13,3.35.46,4,1.67,2,4.91,3.3,7.06,2a6.61,6.61,0,0,0,3.42-4.8c.26-2.18-.76-4.56-2.87-6.68-1.94-1.95-5.46-2.5-8.56-1.35a8.81,8.81,0,0,0-5.82,8.08c-.55,8.62,10.22,12.27,10.76,12.44h15.35a1.74,1.74,0,0,1,3.37,0h57.48c1.62,0,3.92-2.13,4.2-2.79a.55.55,0,0,1,.49-.33.57.57,0,0,1,.52.32c1,2,4.5,2.8,4.53,2.81a.41.41,0,0,1-.09.82Z" transform="translate(1195.14 536.78)"/><path id="_Path_2" data-name="&lt;Path&gt;" class="cls-20" d="M610.79,780.21a5.16,5.16,0,0,1-4.58-2.69.54.54,0,0,0-.48-.28h-.08a.56.56,0,0,0-.46.44c-.28,1.29-2.52,2.25-3.44,2.54H543.66a1.73,1.73,0,0,0-3.37,0H505.88a.41.41,0,0,0-.42.41v17.92h0v22.58a11.24,11.24,0,0,0,.06,1.57A5.37,5.37,0,0,0,506.8,826a2.13,2.13,0,0,0,1.82.51,2.59,2.59,0,0,0,2.26-1.56,2.49,2.49,0,0,0-.46-2.44,2,2,0,0,0-1.9-.7,2.92,2.92,0,0,0-1.87,1.16l0,0c-.07-.08-.15-.22-.28-.43a11,11,0,0,1-.05-1.48v-1.82c.07-.38,1.43-7.36,5.16-9.46a.41.41,0,0,0,.05-.7c-2.3-1.71-4.77-3.88-5.16-4.75.69-.44,2.41-1.72,2.14-3.45a2.13,2.13,0,0,0-.11-.43,2.66,2.66,0,0,0-1.54-1.56c-.41-.22-.54-.3-.54-.44V786.69c0-.22.75-5.65,5-5.65h7c-3.12,1.37-8.15,4.83-8.84,13a12.78,12.78,0,0,0,.84,6,12.45,12.45,0,0,0,3.71,4.95,18.54,18.54,0,0,0,7.73,3.58,1.35,1.35,0,0,0,1.24,1.32,1.28,1.28,0,0,0,1.15-.92h.05l.05,0h0a23.76,23.76,0,0,0,8.76-.67c4.5-1.24,8.84-3.52,13.43-5.94,6.09-3.21,12.38-6.53,19.22-7.27a33.15,33.15,0,0,1,8.91,0,11.84,11.84,0,0,1,1.88.48c.69.6,1.05,1.09,1.07,1.43s-.18.5-.49.85a2.28,2.28,0,0,0-.58,2.88,2.15,2.15,0,0,0,2.54,1,2.23,2.23,0,0,0,1.72-2.44A4.61,4.61,0,0,0,579,796a7.24,7.24,0,0,0-2.1-1.15l-.09,0a12.2,12.2,0,0,0-2.08-.53,33.3,33.3,0,0,0-9.12,0c-7,.75-13.38,4.11-19.53,7.36-4.55,2.39-8.84,4.66-13.26,5.87a20.91,20.91,0,0,1-3.18.61c6.53-1.53,14-8.12,20.63-14,7.45-6.59,20.36-7.11,20.49-7.11h19a8.71,8.71,0,0,1,1.09.18,4.25,4.25,0,0,1,.69.7,1.77,1.77,0,0,1-.32.25,3.37,3.37,0,0,0-1.64,2.23,2.49,2.49,0,0,0,.89,2.44,2.67,2.67,0,0,0,2.62.61,2.76,2.76,0,0,0,1.64-2.49,3.61,3.61,0,0,0-.75-2.92,6.43,6.43,0,0,0-4.19-1.82H547.29a.41.41,0,0,0-.41.36.42.42,0,0,0,.33.46,2,2,0,0,1,1.15.81,2.8,2.8,0,0,1,.16,2.2c-.36,1.4-1.89,1.82-3.08,1.76s-2.63-.69-2.78-1.76a2.82,2.82,0,0,1,1.27-3,.41.41,0,0,0-.19-.78h-9.32a.42.42,0,0,0-.4.28.4.4,0,0,0,.16.46,11.59,11.59,0,0,1,4.16,11.34c-1,5.61-8.24,9.69-14.1,9.87h0a1.34,1.34,0,0,0-1.23-1.24,1.25,1.25,0,0,0-1.12.85,17.5,17.5,0,0,1-7.31-3.4,11.43,11.43,0,0,1-4.25-10.21c.94-11,9.9-12.94,10.59-13.07h1.86a20.33,20.33,0,0,0-6.19,4.28,10.66,10.66,0,0,0-3.17,8.2,9.62,9.62,0,0,0,6.36,8.81c3.45,1.28,7.25.65,9.45-1.55s3.39-4.92,3.1-7.36a7.4,7.4,0,0,0-3.81-5.4c-2.59-1.6-6.25-.13-8.15,2.15-1.46,1.76-1.63,3.65-.45,5.1a.15.15,0,0,0,.05.06l.14.16c1.68,1.81,3.18,1.84,4.13,1.55a3.35,3.35,0,0,0,2.25-2.33,2.56,2.56,0,0,0-.89-2.25,2.5,2.5,0,0,0-2.47-.35,3.31,3.31,0,0,0-1.83,2.06c-.11.25-.31.7-.42.73s-.12,0-.31-.16c-1.29-1.6-.13-3.35.46-4,1.67-2,4.91-3.3,7.06-2a6.61,6.61,0,0,1,3.42,4.8c.26,2.18-.76,4.56-2.87,6.68-1.94,1.95-5.46,2.5-8.56,1.35a8.81,8.81,0,0,1-5.82-8.08c-.55-8.62,10.22-12.27,10.76-12.44h15.35a1.74,1.74,0,0,0,3.37,0h57.48c1.62,0,3.92,2.13,4.2,2.79a.55.55,0,0,0,.49.33.57.57,0,0,0,.52-.32c1-2,4.5-2.8,4.53-2.81a.41.41,0,0,0-.09-.82Z" transform="translate(1195.14 536.78)"/><path id="_Path_3" data-name="&lt;Path&gt;" class="cls-20" d="M1583.88,780.21a5.16,5.16,0,0,0,4.58-2.69.54.54,0,0,1,.48-.28h.08a.56.56,0,0,1,.46.44c.28,1.29,2.52,2.25,3.44,2.54H1651a1.73,1.73,0,0,1,3.37,0h34.42a.41.41,0,0,1,.42.41v17.92h0v22.58a11.24,11.24,0,0,1-.06,1.57,5.37,5.37,0,0,1-1.29,3.35,2.13,2.13,0,0,1-1.82.51,2.59,2.59,0,0,1-2.26-1.56,2.49,2.49,0,0,1,.46-2.44,2,2,0,0,1,1.9-.7A2.92,2.92,0,0,1,1688,823l0,0c.07-.08.15-.22.28-.43a11,11,0,0,0,.05-1.48v-1.82c-.07-.38-1.43-7.36-5.16-9.46a.41.41,0,0,1-.05-.7c2.3-1.71,4.77-3.88,5.16-4.75-.69-.44-2.41-1.72-2.14-3.45a2.13,2.13,0,0,1,.11-.43,2.66,2.66,0,0,1,1.54-1.56c.41-.22.54-.3.54-.44V786.69c0-.22-.75-5.65-5-5.65h-7c3.12,1.37,8.15,4.83,8.84,13a12.78,12.78,0,0,1-.84,6,12.45,12.45,0,0,1-3.71,4.95,18.54,18.54,0,0,1-7.73,3.58,1.35,1.35,0,0,1-1.24,1.32,1.28,1.28,0,0,1-1.15-.92h-.05l-.05,0h0a23.76,23.76,0,0,1-8.76-.67c-4.5-1.24-8.84-3.52-13.43-5.94-6.09-3.21-12.38-6.53-19.22-7.27a33.15,33.15,0,0,0-8.91,0,11.84,11.84,0,0,0-1.88.48c-.69.6-1.05,1.09-1.07,1.43s.18.5.49.85a2.28,2.28,0,0,1,.58,2.88,2.15,2.15,0,0,1-2.54,1,2.23,2.23,0,0,1-1.72-2.44,4.61,4.61,0,0,1,1.74-3.28,7.24,7.24,0,0,1,2.1-1.15l.09,0a12.2,12.2,0,0,1,2.08-.53,33.3,33.3,0,0,1,9.12,0c7,.75,13.38,4.11,19.53,7.36,4.55,2.39,8.84,4.66,13.26,5.87a20.91,20.91,0,0,0,3.18.61c-6.53-1.53-14-8.12-20.63-14-7.45-6.59-20.36-7.11-20.49-7.11h-19a8.71,8.71,0,0,0-1.09.18,4.25,4.25,0,0,0-.69.7,1.77,1.77,0,0,0,.32.25,3.37,3.37,0,0,1,1.64,2.23,2.49,2.49,0,0,1-.89,2.44,2.67,2.67,0,0,1-2.62.61,2.76,2.76,0,0,1-1.64-2.49,3.61,3.61,0,0,1,.75-2.92,6.43,6.43,0,0,1,4.19-1.82h42.45a.41.41,0,0,1,.41.36.42.42,0,0,1-.33.46,2,2,0,0,0-1.15.81,2.8,2.8,0,0,0-.16,2.2c.36,1.4,1.89,1.82,3.08,1.76s2.63-.69,2.78-1.76a2.82,2.82,0,0,0-1.27-3,.41.41,0,0,1,.19-.78h9.32a.42.42,0,0,1,.4.28.4.4,0,0,1-.16.46,11.59,11.59,0,0,0-4.16,11.34c1,5.61,8.24,9.69,14.1,9.87h0a1.34,1.34,0,0,1,1.23-1.24,1.25,1.25,0,0,1,1.12.85,17.5,17.5,0,0,0,7.31-3.4,11.43,11.43,0,0,0,4.25-10.21c-.94-11-9.9-12.94-10.59-13.07H1672a20.33,20.33,0,0,1,6.19,4.28,10.66,10.66,0,0,1,3.17,8.2,9.62,9.62,0,0,1-6.36,8.81c-3.45,1.28-7.25.65-9.45-1.55s-3.39-4.92-3.1-7.36a7.4,7.4,0,0,1,3.81-5.4c2.59-1.6,6.25-.13,8.15,2.15,1.46,1.76,1.63,3.65.45,5.1a.15.15,0,0,1-.05.06l-.14.16c-1.68,1.81-3.18,1.84-4.13,1.55a3.35,3.35,0,0,1-2.25-2.33,2.56,2.56,0,0,1,.89-2.25,2.5,2.5,0,0,1,2.47-.35,3.31,3.31,0,0,1,1.83,2.06c.11.25.31.7.42.73s.12,0,.31-.16c1.29-1.6.13-3.35-.46-4-1.67-2-4.91-3.3-7.06-2a6.61,6.61,0,0,0-3.42,4.8c-.26,2.18.76,4.56,2.87,6.68,1.94,1.95,5.46,2.5,8.56,1.35a8.81,8.81,0,0,0,5.82-8.08c.55-8.62-10.22-12.27-10.76-12.44h-15.35a1.74,1.74,0,0,1-3.37,0h-57.48c-1.62,0-3.92,2.13-4.2,2.79a.55.55,0,0,1-.49.33.57.57,0,0,1-.52-.32c-1-2-4.5-2.8-4.53-2.81a.41.41,0,0,1,.09-.82Z" transform="translate(1195.14 536.78)"/><path id="_Path_4" data-name="&lt;Path&gt;" class="cls-20" d="M1587.91,1425.61a5.16,5.16,0,0,1,4.58,2.69.54.54,0,0,0,.48.28h.08a.56.56,0,0,0,.46-.44c.28-1.29,2.52-2.25,3.44-2.54H1655a1.73,1.73,0,0,0,3.37,0h34.42a.41.41,0,0,0,.42-.41v-17.92h0v-22.58a11.24,11.24,0,0,0-.06-1.57,5.37,5.37,0,0,0-1.29-3.35,2.13,2.13,0,0,0-1.82-.51,2.59,2.59,0,0,0-2.26,1.56,2.49,2.49,0,0,0,.46,2.44,2,2,0,0,0,1.9.7,2.92,2.92,0,0,0,1.87-1.16l0,0c.07.08.15.22.28.43a11,11,0,0,1,.05,1.48v1.82c-.07.38-1.43,7.36-5.16,9.46a.41.41,0,0,0-.05.7c2.3,1.71,4.77,3.88,5.16,4.75-.69.44-2.41,1.72-2.14,3.45a2.13,2.13,0,0,0,.11.43,2.66,2.66,0,0,0,1.54,1.56c.41.22.54.3.54.44v11.86c0,.22-.75,5.65-5,5.65h-7c3.12-1.37,8.15-4.83,8.84-13a12.78,12.78,0,0,0-.84-6,12.45,12.45,0,0,0-3.71-4.95,18.54,18.54,0,0,0-7.73-3.58,1.35,1.35,0,0,0-1.24-1.32,1.28,1.28,0,0,0-1.15.92h-.05l-.05,0h0a23.76,23.76,0,0,0-8.76.67c-4.5,1.24-8.84,3.52-13.43,5.94-6.09,3.21-12.38,6.53-19.22,7.27a33.15,33.15,0,0,1-8.91,0,11.84,11.84,0,0,1-1.88-.48c-.69-.6-1.05-1.09-1.07-1.43s.18-.5.49-.85a2.28,2.28,0,0,0,.58-2.88,2.15,2.15,0,0,0-2.54-1,2.23,2.23,0,0,0-1.72,2.44,4.61,4.61,0,0,0,1.74,3.28,7.24,7.24,0,0,0,2.1,1.15l.09,0a12.2,12.2,0,0,0,2.08.53,33.3,33.3,0,0,0,9.12,0c7-.75,13.38-4.11,19.53-7.36,4.55-2.39,8.84-4.66,13.26-5.87a20.91,20.91,0,0,1,3.18-.61c-6.53,1.53-14,8.12-20.63,14-7.45,6.59-20.36,7.11-20.49,7.11h-19a8.71,8.71,0,0,1-1.09-.18,4.24,4.24,0,0,1-.69-.7,1.77,1.77,0,0,1,.32-.25,3.37,3.37,0,0,0,1.64-2.23,2.49,2.49,0,0,0-.89-2.44,2.67,2.67,0,0,0-2.62-.61,2.76,2.76,0,0,0-1.64,2.49,3.61,3.61,0,0,0,.75,2.92,6.43,6.43,0,0,0,4.19,1.82h42.45a.41.41,0,0,0,.41-.36.42.42,0,0,0-.33-.46,2,2,0,0,1-1.15-.81,2.8,2.8,0,0,1-.16-2.2c.36-1.4,1.89-1.82,3.08-1.76s2.63.69,2.78,1.76a2.82,2.82,0,0,1-1.27,3,.41.41,0,0,0,.19.78h9.32a.42.42,0,0,0,.4-.28.4.4,0,0,0-.16-.46,11.59,11.59,0,0,1-4.16-11.34c1-5.61,8.24-9.69,14.1-9.87h0a1.34,1.34,0,0,0,1.23,1.24,1.25,1.25,0,0,0,1.12-.85,17.5,17.5,0,0,1,7.31,3.4,11.43,11.43,0,0,1,4.25,10.21c-.94,11-9.9,12.94-10.59,13.07H1676a20.33,20.33,0,0,0,6.19-4.28,10.66,10.66,0,0,0,3.17-8.2,9.62,9.62,0,0,0-6.36-8.81c-3.45-1.28-7.25-.65-9.45,1.55s-3.39,4.92-3.1,7.36a7.4,7.4,0,0,0,3.81,5.4c2.59,1.6,6.25.13,8.15-2.15,1.46-1.76,1.63-3.65.45-5.1a.15.15,0,0,0-.05-.06l-.14-.16c-1.68-1.81-3.18-1.84-4.13-1.55a3.35,3.35,0,0,0-2.25,2.33,2.56,2.56,0,0,0,.89,2.25,2.5,2.5,0,0,0,2.47.35,3.31,3.31,0,0,0,1.83-2.06c.11-.25.31-.7.42-.73s.12,0,.31.16c1.29,1.6.13,3.35-.46,4-1.67,2-4.91,3.3-7.06,2a6.61,6.61,0,0,1-3.42-4.8c-.26-2.18.76-4.56,2.87-6.68,1.94-1.95,5.46-2.5,8.56-1.35a8.81,8.81,0,0,1,5.82,8.08c.55,8.62-10.22,12.27-10.76,12.44H1658.4a1.74,1.74,0,0,0-3.37,0h-57.48c-1.62,0-3.92-2.13-4.2-2.79a.55.55,0,0,0-.49-.33.57.57,0,0,0-.52.32c-1,2-4.5,2.8-4.53,2.81a.41.41,0,0,0,.09.82Z" transform="translate(1195.14 536.78)"/></svg>